<?xml version="1.0" standalone="no"?>
<!DOCTYPE svg PUBLIC "-//W3C//DTD SVG 1.1//EN" "http://www.w3.org/Graphics/SVG/1.1/DTD/svg11.dtd" >
<svg xmlns="http://www.w3.org/2000/svg" xmlns:xlink="http://www.w3.org/1999/xlink" version="1.1">
<metadata>
Created by FontForge 20190801 at Thu Jun 29 22:53:43 2017
 By www-data
Copyright (c) 2017 by Alexander Slobzheninov. All rights reserved.
</metadata>
<defs>
<font id="FivoSansBold" horiz-adv-x="576" >
  <font-face 
    font-family="FivoSansBold"
    font-weight="700"
    font-stretch="normal"
    units-per-em="1000"
    panose-1="0 0 0 0 0 0 0 0 0 0"
    ascent="800"
    descent="-200"
    x-height="500"
    cap-height="700"
    bbox="-80 -251 1261 960"
    underline-thickness="50"
    underline-position="975"
    unicode-range="U+000D-E133"
  />
<missing-glyph horiz-adv-x="200" 
 />
    <glyph glyph-name=".notdef" horiz-adv-x="200" 
 />
    <glyph glyph-name=".null" horiz-adv-x="0" 
 />
    <glyph glyph-name="nonmarkingreturn" horiz-adv-x="333" 
 />
    <glyph glyph-name="NULL" horiz-adv-x="772" 
d="M80 700h612v-700h-612v700zM220 575v-450h331v450h-331z" />
    <glyph glyph-name="NULL" horiz-adv-x="772" 
d="M80 700h612v-700h-612v700zM220 575v-450h331v450h-331z" />
    <glyph glyph-name="CR" unicode="&#xd;" horiz-adv-x="250" 
 />
    <glyph glyph-name="space" unicode=" " horiz-adv-x="300" 
 />
    <glyph glyph-name="exclam" unicode="!" horiz-adv-x="292" 
d="M146 155q45 0 65.5 -20t20.5 -63t-20.5 -62.5t-65.5 -19.5t-65.5 19.5t-20.5 62.5t20.5 63t65.5 20zM68 700h156v-190l-32 -254h-92l-32 254v190z" />
    <glyph glyph-name="quotedbl" unicode="&#x22;" horiz-adv-x="389" 
d="M163 700v-140l-17 -216h-100l-16 216v140h133zM359 700v-140l-16 -216h-100l-17 216v140h133z" />
    <glyph glyph-name="numbersign" unicode="#" horiz-adv-x="730" 
d="M370 0l26 182h-110l-26 -182h-108l26 182h-138v100h152l16 110h-138v100h152l30 208h108l-30 -208h110l30 208h108l-30 -208h142v-100h-156l-16 -110h142v-100h-156l-26 -182h-108zM426 392h-110l-16 -110h110z" />
    <glyph glyph-name="dollar" unicode="$" horiz-adv-x="656" 
d="M270 -100v83q-120 9 -175 61t-55 156h148q0 -59 33 -85.5t107 -26.5q70 0 101 22t31 70q0 32 -22.5 54.5t-59 35t-80 23t-87 25t-80 34.5t-59 56.5t-22.5 87.5q0 105 52.5 158t167.5 63v83h116v-83q115 -10 167.5 -61.5t52.5 -155.5h-148q0 58 -31 84.5t-99 26.5
q-65 0 -93.5 -21.5t-28.5 -70.5q0 -31 30.5 -51.5t76 -30.5t98.5 -26t98.5 -36.5t76 -64.5t30.5 -107q0 -106 -55 -159t-175 -62v-82h-116z" />
    <glyph glyph-name="percent" unicode="%" horiz-adv-x="888" 
d="M204 710q92 0 133 -47t41 -151t-41 -151t-133 -47t-133 47t-41 151t41 151t133 47zM204 398q35 0 50.5 27t15.5 87t-15.5 87t-50.5 27t-50.5 -27t-15.5 -87t15.5 -87t50.5 -27zM291 -30h-134l440 760h134zM684 390q92 0 133 -47t41 -151t-41 -151t-133 -47t-133 47
t-41 151t41 151t133 47zM684 78q35 0 50.5 27t15.5 87t-15.5 87t-49.5 27q-35 0 -50.5 -27t-15.5 -87t15.5 -87t49.5 -27z" />
    <glyph glyph-name="ampersand" unicode="&#x26;" horiz-adv-x="794" 
d="M784 0h-191l-52 51q-91 -71 -243 -71q-132 0 -195 48.5t-63 148.5q0 71 43 121.5t118 92.5q-71 82 -71 146q0 99 56.5 141t161.5 42q108 0 158 -38.5t50 -118.5q0 -59 -42 -100.5t-119 -84.5l142 -139q19 47 27 111h116q-12 -118 -55 -197zM314 88q83 0 144 46l-180 178
q-83 -56 -82 -118q1 -50 31.5 -78t86.5 -28zM320 452q56 28 84 52.5t28 56.5q0 67 -84 67q-45 0 -65.5 -17.5t-20.5 -56.5q0 -42 58 -102z" />
    <glyph glyph-name="quotesingle" unicode="'" horiz-adv-x="193" 
d="M163 700v-140l-17 -216h-100l-16 216v140h133z" />
    <glyph glyph-name="parenleft" unicode="(" horiz-adv-x="296" 
d="M169 -200q-129 215 -129 460q0 40 3 78.5t10 72.5t13.5 62.5t17.5 57t18.5 47t20 42t17.5 33t17 28t12 19.5h117q-19 -32 -25.5 -42.5t-29.5 -60t-34 -90.5t-22 -108.5t-11 -138.5q0 -257 122 -460h-117z" />
    <glyph glyph-name="parenright" unicode=")" horiz-adv-x="296" 
d="M127 -200h-117q122 203 122 460q0 71 -11 138.5t-22 108.5t-34 90.5t-29.5 60t-25.5 42.5h117q0 -1 12 -19.5t17 -28t17.5 -33t20 -42t18.5 -47t17.5 -57t13.5 -62.5t10 -72.5t3 -78.5q0 -245 -129 -460z" />
    <glyph glyph-name="asterisk" unicode="*" horiz-adv-x="354" 
d="M143 400v60l8 40v4l-4 -2l-31 -27l-52 -30l-34 59l52 30l39 13l4 2l-5 3l-38 13l-52 30l34 59l52 -30l30 -27l5 -3v6l-8 40v60h68v-60l-8 -40v-5l4 2l31 27l52 30l34 -59l-52 -30l-38 -13l-5 -3l4 -2l39 -13l52 -30l-34 -59l-52 30l-31 27l-4 2v-4l8 -40v-60h-68z" />
    <glyph glyph-name="plus" unicode="+" horiz-adv-x="580" 
d="M550 310v-108h-202v-202h-116v202h-202v108h202v190h116v-190h202z" />
    <glyph glyph-name="comma" unicode="," horiz-adv-x="232" 
d="M108 155q57 0 75.5 -35.5t18.5 -97.5q0 -102 -38.5 -148t-123.5 -46v67q37 0 53.5 22.5t15.5 72.5q-41 0 -60 19t-19 62q0 42 18 63t60 21z" />
    <glyph glyph-name="hyphen" unicode="-" horiz-adv-x="390" 
d="M360 212h-330v108h330v-108z" />
    <glyph glyph-name="period" unicode="." horiz-adv-x="232" 
d="M116 155q45 0 65.5 -20t20.5 -63t-20.5 -62.5t-65.5 -19.5t-65.5 19.5t-20.5 62.5t20.5 63t65.5 20z" />
    <glyph glyph-name="slash" unicode="/" horiz-adv-x="393" 
d="M250 700h133l-240 -700h-133z" />
    <glyph glyph-name="zero" unicode="0" horiz-adv-x="712" 
d="M356 720q166 0 241 -88t75 -282t-75 -282t-241 -88t-241 88t-75 282q0 195 75 282.5t241 87.5zM356 88q84 0 122 62t38 200t-38 200t-122 62t-122 -62t-38 -200t38 -200t122 -62z" />
    <glyph glyph-name="one" unicode="1" horiz-adv-x="378" 
d="M30 592v108h268v-700h-148v592h-120z" />
    <glyph glyph-name="two" unicode="2" horiz-adv-x="578" 
d="M239 108h299v-108h-508v90q50 45 117.5 100t105 86.5t75.5 70t54.5 73.5t16.5 74q0 62 -25 90t-80 28q-56 0 -81 -33.5t-25 -108.5h-148q0 131 60.5 190.5t193.5 59.5t193.5 -53.5t60.5 -172.5q0 -30 -6.5 -57.5t-24 -55.5t-33.5 -49t-49 -52t-55.5 -50.5t-68 -58.5
t-72.5 -63z" />
    <glyph glyph-name="three" unicode="3" horiz-adv-x="634" 
d="M302 312h-44v100h44q68 0 99 23t31 73q0 55 -28.5 79.5t-91.5 24.5t-91.5 -31t-28.5 -101h-132q0 126 59.5 183t192.5 57q132 0 192 -48.5t60 -155.5q0 -39 -11.5 -69t-28.5 -44t-34 -22t-28 -9l-12 -2q6 -1 15.5 -2.5t34.5 -12t44 -26.5t34.5 -49t15.5 -76
q0 -118 -67 -171t-215 -53t-215 59.5t-67 190.5h140q0 -75 33.5 -108.5t108.5 -33.5q70 0 101.5 27.5t31.5 88.5q0 56 -34 82t-109 26z" />
    <glyph glyph-name="four" unicode="4" horiz-adv-x="660" 
d="M364 700h166v-420h70v-108h-70v-172h-148v172h-352v126zM160 280h222v270z" />
    <glyph glyph-name="five" unicode="5" horiz-adv-x="604" 
d="M228 592v-1l-24 -136q47 25 124 25q129 0 187.5 -59.5t58.5 -190.5t-68.5 -190.5t-219.5 -59.5q-126 0 -187 52.5t-69 167.5h132q8 -59 39 -85.5t93 -26.5q69 0 100.5 33.5t31.5 108.5t-31 108.5t-99 33.5q-54 0 -82 -18.5t-38 -59.5h-124l68 406h404v-108h-296z" />
    <glyph glyph-name="six" unicode="6" horiz-adv-x="634" 
d="M40 340q0 200 67 290t215 90q111 0 171 -47.5t81 -152.5h-140q-13 53 -39 76.5t-73 23.5q-71 0 -102.5 -52.5t-31.5 -171.5l3 9t13.5 20.5t28.5 25.5t52 20t80 9q116 0 172.5 -60t56.5 -190q0 -131 -64.5 -190.5t-207.5 -59.5q-152 0 -217 85t-65 275zM322 372
q-65 0 -94.5 -34t-29.5 -108t29.5 -108t94.5 -34t94 33.5t29 108.5t-29 108.5t-94 33.5z" />
    <glyph glyph-name="seven" unicode="7" horiz-adv-x="552" 
d="M522 610l-300 -610h-157l299 592h-334v108h492v-90z" />
    <glyph glyph-name="eight" unicode="8" horiz-adv-x="664" 
d="M149 369q-79 42 -79 147q0 107 62 155.5t200 48.5q137 0 199.5 -48.5t62.5 -155.5q0 -105 -79 -147q109 -44 109 -173q0 -113 -69.5 -164.5t-222.5 -51.5q-154 0 -223 51.5t-69 164.5q0 129 109 173zM333 88q75 0 109 27t34 85q0 60 -33.5 86t-109.5 26t-110 -26t-34 -86
q0 -58 34.5 -85t109.5 -27zM332 612q-64 0 -93 -24t-29 -76q0 -54 28.5 -77t93.5 -23t93.5 23t28.5 77q0 52 -29 76t-93 24z" />
    <glyph glyph-name="nine" unicode="9" horiz-adv-x="634" 
d="M594 360q0 -199 -67 -289.5t-215 -90.5q-112 0 -171.5 47.5t-80.5 152.5h140q13 -53 39 -76.5t73 -23.5q71 0 102.5 52.5t31.5 171.5l-3 -9t-13.5 -20.5t-28.5 -25.5t-52 -20t-80 -9q-116 0 -172.5 60t-56.5 190q0 131 64.5 190.5t207.5 59.5q152 0 217 -85t65 -275z
M312 328q64 0 93.5 34t29.5 108t-29.5 108t-93.5 34q-65 0 -94.5 -33.5t-29.5 -108.5q0 -74 29.5 -108t94.5 -34z" />
    <glyph glyph-name="colon" unicode=":" horiz-adv-x="233" 
d="M116 155q46 0 66.5 -19.5t20.5 -63.5q0 -43 -21 -62.5t-66 -19.5t-65.5 19.5t-20.5 62.5t20.5 63t65.5 20zM116 502q46 0 66.5 -19.5t20.5 -62.5t-21 -62.5t-66 -19.5t-65.5 19.5t-20.5 62.5t20.5 62.5t65.5 19.5z" />
    <glyph glyph-name="semicolon" unicode=";" horiz-adv-x="233" 
d="M116 502q46 0 66.5 -19.5t20.5 -62.5t-21 -62.5t-66 -19.5t-65.5 19.5t-20.5 62.5t20.5 62.5t65.5 19.5zM108 155q55 0 74.5 -36.5t19.5 -96.5q0 -102 -38.5 -148t-123.5 -46v67q37 0 53.5 22.5t16.5 72.5q-41 0 -60 19t-20 62q0 42 18 63t60 21z" />
    <glyph glyph-name="less" unicode="&#x3c;" horiz-adv-x="460" 
d="M30 325l400 175v-133l-267 -117l267 -117v-133l-400 175v150z" />
    <glyph glyph-name="equal" unicode="=" horiz-adv-x="644" 
d="M614 222v-108h-584v108h584zM614 416v-108h-584v108h584z" />
    <glyph glyph-name="greater" unicode="&#x3e;" horiz-adv-x="460" 
d="M30 500l400 -175v-150l-400 -175v133l267 117l-267 117v133z" />
    <glyph glyph-name="question" unicode="?" horiz-adv-x="552" 
d="M264 155q45 0 65.5 -20t20.5 -63t-20.5 -62.5t-65.5 -19.5q-46 0 -66 19.5t-20 62.5t20.5 63t65.5 20zM200 250q0 48 12.5 83.5t30.5 54t40 35t40 27.5t30.5 31.5t12.5 48.5q0 43 -23.5 62.5t-74.5 19.5t-74.5 -29t-23.5 -93h-140q0 121 58.5 175.5t187.5 54.5
q130 0 188 -45t58 -145q0 -50 -20.5 -83.5t-49.5 -51t-58 -34t-49.5 -43.5t-20.5 -68h-124z" />
    <glyph glyph-name="at" unicode="@" horiz-adv-x="891" 
d="M643 460h1l1 -270q-1 -86 43 -86q28 0 41 34.5t13 111.5q0 164 -68.5 238t-221.5 74q-160 0 -232 -74t-71 -238q-1 -158 60 -230t197 -72q103 0 160 50v-102q-17 -13 -60 -26.5t-100 -13.5q-192 -1 -279 92.5t-87 301.5q0 212 98 308t314 96q209 0 304 -96t95 -308
q0 -119 -40.5 -174.5t-122.5 -55.5q-105 0 -140 67q-44 -47 -139 -47q-98 0 -142.5 50t-44.5 160q0 116 44.5 168t143.5 52q80 0 130 -55l19 45h84zM433 124q49 0 71.5 30t22.5 96q0 67 -22 97.5t-72 30.5t-73 -30.5t-23 -97.5t23 -96.5t73 -29.5z" />
    <glyph glyph-name="A" unicode="A" horiz-adv-x="692" 
d="M510 0l-42 144h-249l-44 -144h-165l229 700h230l213 -700h-172zM346 564l-94 -312h185z" />
    <glyph glyph-name="B" unicode="B" horiz-adv-x="696" 
d="M535 370q5 -1 13 -4t29 -15.5t37 -29t29 -47t13 -68.5q0 -108 -64 -157t-206 -49h-306v700h298q130 0 189 -44t59 -142q0 -53 -23 -89t-45 -45zM362 108q64 0 93 23t29 75q0 55 -29 80.5t-93 25.5h-117v-204h117zM245 592v-180h109q52 0 76 22.5t24 71.5q0 45 -24 65.5
t-76 20.5h-109z" />
    <glyph glyph-name="C" unicode="C" horiz-adv-x="766" 
d="M562 236h164q-32 -134 -110 -195t-220 -61q-187 0 -271.5 88t-84.5 282t84.5 282t271.5 88q153 0 231 -61t99 -195h-164q-15 70 -54 100.5t-112 30.5q-96 0 -139.5 -58t-43.5 -187t43.5 -187t139.5 -58q70 0 109 30.5t57 100.5z" />
    <glyph glyph-name="D" unicode="D" horiz-adv-x="742" 
d="M702 350q0 -184 -82.5 -267t-265.5 -83h-274v700h274q183 0 265.5 -83t82.5 -267zM346 584h-101v-468h101q97 0 140.5 55.5t43.5 178.5t-43.5 178.5t-140.5 55.5z" />
    <glyph glyph-name="E" unicode="E" horiz-adv-x="614" 
d="M584 584h-339v-164h299v-116h-299v-188h339v-116h-504v700h504v-116z" />
    <glyph glyph-name="F" unicode="F" horiz-adv-x="604" 
d="M584 584h-339v-164h299v-116h-299v-304h-165v700h504v-116z" />
    <glyph glyph-name="G" unicode="G" horiz-adv-x="776" 
d="M398 294v108h338v-52q0 -194 -80 -282t-258 -88q-188 0 -273 88t-85 282t85 282t273 88q147 0 225 -57t103 -183h-156q-15 61 -55.5 88t-116.5 27q-98 0 -141.5 -57.5t-43.5 -187.5q0 -129 44 -187t141 -58q96 0 139 44.5t43 144.5h-182z" />
    <glyph glyph-name="H" unicode="H" horiz-adv-x="756" 
d="M512 700h164v-700h-164v312h-267v-312h-165v700h165v-264h267v264z" />
    <glyph glyph-name="I" unicode="I" horiz-adv-x="325" 
d="M80 700h165v-700h-165v700z" />
    <glyph glyph-name="J" unicode="J" horiz-adv-x="574" 
d="M20 210v34h156v-34q0 -56 19.5 -80.5t62.5 -24.5q44 0 63 24.5t19 80.5v490h164v-490q0 -117 -59 -173.5t-187 -56.5q-124 0 -181 56.5t-57 173.5z" />
    <glyph glyph-name="K" unicode="K" horiz-adv-x="711" 
d="M245 700v-272l237 272h199l-296 -340l316 -360h-199l-257 293v-293h-165v700h165z" />
    <glyph glyph-name="L" unicode="L" horiz-adv-x="574" 
d="M544 125v-125h-464v700h165v-575h299z" />
    <glyph glyph-name="M" unicode="M" horiz-adv-x="932" 
d="M80 0v700h223l167 -477l167 477h215v-700h-156v499l-180 -499h-100l-179 499v-499h-157z" />
    <glyph glyph-name="N" unicode="N" horiz-adv-x="772" 
d="M536 700h156v-700h-190l-265 495v-495h-157v700h191l265 -495v495z" />
    <glyph glyph-name="O" unicode="O" horiz-adv-x="796" 
d="M398 720q188 0 273 -88t85 -282t-85 -282t-273 -88t-273 88t-85 282t85 282t273 88zM398 595q-97 0 -141 -58t-44 -187t44 -187t141 -58q98 0 142 58t44 187t-44 187t-142 58z" />
    <glyph glyph-name="P" unicode="P" horiz-adv-x="686" 
d="M656 474q0 -101 -66 -163.5t-202 -62.5h-143v-248h-165v700h308q136 0 202 -62.5t66 -163.5zM492 474q0 52 -28 81t-84 29h-135v-220h135q56 0 84 29t28 81z" />
    <glyph glyph-name="Q" unicode="Q" horiz-adv-x="795" 
d="M397 720q188 0 273 -88t85 -282q0 -211 -101 -297l101 -123h-150l-56 68q-64 -18 -151 -18q-188 0 -273 88t-85 282t85 282t272 88zM583 350q0 129 -45 187t-143 58q-97 0 -141 -58t-44 -187t44 -187t141 -58q33 0 60 6l-131 159h150l75 -91q34 59 34 171z" />
    <glyph glyph-name="R" unicode="R" horiz-adv-x="722" 
d="M369 256h-124v-256h-165v700h320q136 0 202 -62.5t66 -163.5q0 -158 -143 -202l157 -272h-173zM245 364h147q56 0 84 29t28 81t-28 81t-84 29h-147v-220z" />
    <glyph glyph-name="S" unicode="S" horiz-adv-x="656" 
d="M206 520q0 -31 30.5 -51.5t76 -30.5t98.5 -26t98.5 -36.5t76 -64.5t30.5 -107q0 -118 -68.5 -171t-219.5 -53t-219.5 52t-68.5 168h148q0 -59 33 -85.5t107 -26.5q70 0 101 22t31 70q0 32 -22.5 54.5t-59 35t-80 23t-87 25t-80 34.5t-59 56.5t-22.5 87.5q0 118 66 171
t212 53t212 -52t66 -168h-148q0 59 -31 85.5t-99 26.5q-65 0 -93.5 -21.5t-28.5 -70.5z" />
    <glyph glyph-name="T" unicode="T" horiz-adv-x="636" 
d="M606 700v-125h-206v-575h-164v575h-206v125h576z" />
    <glyph glyph-name="U" unicode="U" horiz-adv-x="736" 
d="M70 258v442h165v-442q0 -81 31.5 -117t101.5 -36q71 0 102.5 36t31.5 117v442h164v-442q0 -146 -70.5 -212t-227.5 -66t-227.5 66t-70.5 212z" />
    <glyph glyph-name="V" unicode="V" horiz-adv-x="684" 
d="M175 700l167 -592l167 592h165l-213 -700h-238l-213 700h165z" />
    <glyph glyph-name="W" unicode="W" horiz-adv-x="1012" 
d="M407 700h197h1l103 -542l119 542h165l-171 -700h-214l-107 540l-95 -540h-214l-171 700h165l119 -542z" />
    <glyph glyph-name="X" unicode="X" horiz-adv-x="684" 
d="M201 700l143 -243l147 243h173l-213 -340l223 -360h-181l-151 262l-159 -262h-173l218 360l-208 340h181z" />
    <glyph glyph-name="Y" unicode="Y" horiz-adv-x="664" 
d="M414 268v-268h-156v268l-248 432h181l145 -279l145 279h173z" />
    <glyph glyph-name="Z" unicode="Z" horiz-adv-x="624" 
d="M221 116h373v-116h-564v99l363 485h-353v116h544v-99z" />
    <glyph glyph-name="bracketleft" unicode="[" horiz-adv-x="324" 
d="M80 700h234v-108l-110 -1v-683h110v-108h-234v900z" />
    <glyph glyph-name="backslash" unicode="\" horiz-adv-x="393" 
d="M10 700h133l240 -700h-133z" />
    <glyph glyph-name="bracketright" unicode="]" horiz-adv-x="325" 
d="M10 700h235v-900h-235v108h110v683l-110 1v108z" />
    <glyph glyph-name="asciicircum" unicode="^" horiz-adv-x="496" 
d="M323 670l143 -350h-117l-101 248l-101 -248h-117l143 350h150z" />
    <glyph glyph-name="underscore" unicode="_" horiz-adv-x="520" 
d="M520 0v-108h-520v108h520z" />
    <glyph glyph-name="grave" unicode="`" horiz-adv-x="306" 
d="M180 700l96 -150h-117l-129 150h150z" />
    <glyph glyph-name="a" unicode="a" horiz-adv-x="556" 
d="M373 42q-46 -52 -155 -52q-99 0 -143.5 37.5t-44.5 120.5q0 89 57.5 129.5t184.5 40.5h86v22q0 45 -20 65.5t-64 20.5t-64 -18t-19 -58h-141q0 84 54 122t174 38q119 0 173.5 -44.5t54.5 -141.5v-324h-116zM358 234h-65q-26 0 -43 -2.5t-35.5 -9.5t-27.5 -23.5t-9 -42.5
q0 -36 18.5 -51t61.5 -15q57 0 78.5 30t21.5 89v25z" />
    <glyph glyph-name="b" unicode="b" horiz-adv-x="605" 
d="M358 -10q-109 0 -162 57l-20 -47h-116v700h148v-235q51 45 149 45q115 0 166.5 -61.5t51.5 -198.5q0 -91 -22.5 -148t-70.5 -84.5t-124 -27.5zM318 98q58 0 84 36t26 116t-26 116t-84 36t-84 -36t-26 -116t26 -116t84 -36z" />
    <glyph glyph-name="c" unicode="c" 
d="M398 184h148q-11 -102 -70 -148t-178 -46q-141 0 -204.5 61.5t-63.5 198.5t63.5 198.5t204.5 61.5q119 0 178 -46t70 -148h-148q-8 45 -32 65.5t-68 20.5q-63 0 -91.5 -36t-28.5 -116t28.5 -116t91.5 -36q43 0 67 20.5t33 65.5z" />
    <glyph glyph-name="d" unicode="d" horiz-adv-x="606" 
d="M248 -10q-115 0 -166.5 61.5t-51.5 198.5t51.5 198.5t166.5 61.5q99 0 150 -45v235h148v-700h-116l-20 47q-51 -57 -162 -57zM288 98q58 0 84 36t26 116t-26 116t-84 36t-84 -36t-26 -116t26 -116t84 -36z" />
    <glyph glyph-name="e" unicode="e" 
d="M179 202q6 -62 32 -91t77 -29q43 0 65.5 17.5t32.5 56.5h140q-17 -87 -73 -126.5t-165 -39.5q-136 0 -197 61.5t-61 198.5t61 198.5t197 61.5t197 -62.5t61 -201.5v-44h-367zM289 418q-53 0 -79.5 -31.5t-31.5 -100.5h221q0 70 -26 101t-84 31z" />
    <glyph glyph-name="f" unicode="f" horiz-adv-x="436" 
d="M308 592q-46 0 -46 -44v-48h144v-92h-144v-408h-148v408h-84v92h84v48q0 71 40.5 111.5t113.5 40.5h138v-108h-98z" />
    <glyph glyph-name="g" unicode="g" horiz-adv-x="607" 
d="M249 -10q-115 0 -167 62t-52 198q0 137 51.5 198.5t166.5 61.5q112 0 164 -58l19 48h116v-450q0 -137 -61 -198.5t-197 -61.5q-112 0 -168 39.5t-70 126.5h140q8 -39 29.5 -56.5t60.5 -17.5q62 0 90 34t28 109v10q-51 -45 -150 -45zM288 98q58 0 84 36t26 116t-26 116
t-84 36t-84 -36t-26 -116t26 -116t84 -36z" />
    <glyph glyph-name="h" unicode="h" horiz-adv-x="587" 
d="M61 0h-1v700h148v-227q47 37 133 37q103 0 149.5 -57t46.5 -183v-270h-148v270q0 70 -20.5 101t-67.5 31q-49 0 -70.5 -31t-21.5 -101l1 -270l-1 4v-4h-148z" />
    <glyph glyph-name="i" unicode="i" horiz-adv-x="272" 
d="M210 0h-148v500h148v-500zM136 722q45 0 65.5 -18.5t20.5 -59.5t-20.5 -59.5t-65.5 -18.5t-65.5 18.5t-20.5 59.5t20.5 59.5t65.5 18.5z" />
    <glyph glyph-name="j" unicode="j" horiz-adv-x="270" 
d="M-2 -72q30 0 46 16t16 44v512h149v-528q0 -71 -41 -111.5t-114 -40.5h-134v108h78zM134 722q45 0 65.5 -18.5t20.5 -59.5t-20.5 -59.5t-65.5 -18.5t-65.5 18.5t-20.5 59.5t20.5 59.5t65.5 18.5z" />
    <glyph glyph-name="k" unicode="k" horiz-adv-x="587" 
d="M208 700v-393l174 193h175l-216 -240l236 -260h-175l-194 214v-214h-148v700h148z" />
    <glyph glyph-name="l" unicode="l" horiz-adv-x="268" 
d="M60 0v700h148v-700h-148z" />
    <glyph glyph-name="m" unicode="m" horiz-adv-x="867" 
d="M208 271v-271h-148v500h116l23 -56q39 67 137 67q103 0 144 -70q44 70 153 70q97 0 140.5 -57t43.5 -183v-270h-148v270q0 69 -18 100.5t-58 31.5q-42 0 -61 -31.5t-19 -100.5v-270h-148v270q0 70 -18 101t-58 31q-42 0 -61.5 -31.5t-19.5 -100.5z" />
    <glyph glyph-name="n" unicode="n" horiz-adv-x="586" 
d="M176 500l-1 -1l18 -39q49 50 147 50q103 0 149.5 -57t46.5 -183v-270h-148v270q0 70 -21 101t-67 31q-48 0 -70 -28.5t-22 -91.5v-282h-148v500h116z" />
    <glyph glyph-name="o" unicode="o" horiz-adv-x="596" 
d="M298 510q141 0 204.5 -61.5t63.5 -198.5t-63.5 -198.5t-204.5 -61.5t-204.5 61.5t-63.5 198.5t63.5 198.5t204.5 61.5zM178 250q0 -80 28.5 -116t91.5 -36t91.5 36t28.5 116t-28.5 116t-91.5 36t-91.5 -36t-28.5 -116z" />
    <glyph glyph-name="p" unicode="p" horiz-adv-x="605" 
d="M356 510q115 0 166.5 -62t51.5 -198q0 -137 -51.5 -198.5t-166.5 -61.5q-98 0 -149 45v-235h-148v700h116l20 -47q53 57 161 57zM315 401q-58 0 -84 -36t-26 -115q0 -80 26 -116t84 -36t84 36t26 116q0 79 -26 115t-84 36z" />
    <glyph glyph-name="q" unicode="q" horiz-adv-x="606" 
d="M248 510q111 0 162 -57l20 47h116v-700h-148v235q-51 -45 -150 -45q-115 0 -166.5 61.5t-51.5 198.5t51.5 198.5t166.5 61.5zM288 401q-58 0 -84 -36t-26 -115q0 -80 26 -116t84 -36t84 36t26 116q0 79 -26 115t-84 36z" />
    <glyph glyph-name="r" unicode="r" horiz-adv-x="407" 
d="M315 385h-1q-56 0 -81.5 -32t-25.5 -102v-250h-148v500h116l20 -47q46 56 120 56h72v-125h-72z" />
    <glyph glyph-name="s" unicode="s" horiz-adv-x="508" 
d="M172 372q0 -23 22.5 -36.5t56.5 -19t74 -15.5t74 -23.5t56.5 -45t22.5 -78.5q0 -86 -55.5 -125t-177.5 -39q-113 0 -164 38t-51 122h140q0 -40 19 -58t61 -18t61 15t19 49q0 29 -30.5 44.5t-74.5 23t-88 19t-74.5 44t-30.5 87.5q0 81 51.5 117.5t166.5 36.5
q110 0 160 -35.5t50 -114.5h-132q0 35 -18.5 50.5t-59.5 15.5t-59.5 -12.5t-18.5 -41.5z" />
    <glyph glyph-name="t" unicode="t" horiz-adv-x="442" 
d="M269 168q0 -27 16 -43.5t45 -16.5h82v-108h-138q-73 0 -113.5 40.5t-40.5 111.5v256h-80v92h80v126h149v-126h143v-92h-143v-240z" />
    <glyph glyph-name="u" unicode="u" horiz-adv-x="586" 
d="M410 0l1 1l-18 39q-49 -50 -147 -50q-103 0 -149.5 57t-46.5 183v270h148v-270q0 -70 21 -101t67 -31q92 0 92 120l1 282h147v-500h-116z" />
    <glyph glyph-name="v" unicode="v" horiz-adv-x="548" 
d="M277 98l104 402h157l-153 -500h-222l-153 500h157z" />
    <glyph glyph-name="w" unicode="w" horiz-adv-x="864" 
d="M697 0h-182l-83 396l-83 -396h-181l-148 500h149l96 -382l80 382h182l73 -381l96 381h148z" />
    <glyph glyph-name="x" unicode="x" horiz-adv-x="532" 
d="M177 500l89 -154l89 154h157l-155 -240l165 -260h-157l-99 173l-99 -173h-157l165 260l-155 240h157z" />
    <glyph glyph-name="y" unicode="y" horiz-adv-x="536" 
d="M222 2h-1l4 11l-216 487h141l131 -316l104 316h140l-168 -482q-38 -104 -88 -151t-122 -47h-72v92h64q28 0 47.5 21.5t35.5 68.5z" />
    <glyph glyph-name="z" unicode="z" horiz-adv-x="504" 
d="M205 100h269v-100h-444v83l260 317h-250v100h424v-83z" />
    <glyph glyph-name="braceleft" unicode="{" horiz-adv-x="384" 
d="M230 128v-160q0 -32 13 -46t41 -14h90v-108h-122q-77 0 -111.5 37.5t-34.5 119.5v186q0 35 -16 50.5t-50 15.5v92q34 0 50 15.5t16 50.5v176q0 82 34.5 119.5t111.5 37.5h122v-108h-90q-28 0 -41 -14t-13 -46v-151q0 -100 -63 -126q63 -26 63 -127z" />
    <glyph glyph-name="bar" unicode="|" horiz-adv-x="284" 
d="M80 700h124v-900h-124v900z" />
    <glyph glyph-name="braceright" unicode="}" horiz-adv-x="384" 
d="M154 128q0 101 63 127q-63 26 -63 126v151q0 32 -13 46t-41 14h-90v108h122q77 0 111.5 -37.5t34.5 -119.5v-176q0 -35 16 -50.5t50 -15.5v-92q-34 0 -50 -15.5t-16 -50.5v-186q0 -82 -34.5 -119.5t-111.5 -37.5h-122v108h90q28 0 41 14t13 46v160z" />
    <glyph glyph-name="asciitilde" unicode="~" horiz-adv-x="660" 
d="M30 210v102q41 40 87 52t89 1.5t87.5 -30t88 -39.5t85 -31.5t84 -1t79.5 47.5v-101q-41 -40 -87 -52.5t-89 -2.5t-87.5 29.5t-88.5 39.5t-85 31.5t-83.5 1.5t-79.5 -47z" />
    <glyph glyph-name="space_" unicode="&#xa0;" horiz-adv-x="300" 
 />
    <glyph glyph-name="exclamdown" unicode="&#xa1;" horiz-adv-x="292" 
d="M230 -200h-156v190l32 254h92l32 -254v-190zM146 343q-45 0 -65.5 20t-20.5 63t20.5 62.5t65.5 19.5t65.5 -19.5t20.5 -62.5t-20.5 -63t-65.5 -20z" />
    <glyph glyph-name="cent" unicode="&#xa2;" 
d="M240 -98v87q-110 12 -160 74t-50 184t50 184t160 74v83h116v-83q89 -10 134.5 -55.5t55.5 -134.5h-148q-8 45 -32 65.5t-70 20.5q-62 0 -90 -36.5t-28 -115.5t28 -115.5t89 -36.5q46 0 70 20.5t33 65.5h148q-10 -89 -55.5 -134.5t-134.5 -55.5v-91h-116z" />
    <glyph glyph-name="sterling" unicode="&#xa3;" horiz-adv-x="656" 
d="M626 116v-1v-116h-586v135q51 20 70 56.5t19 94.5v16h-89v108h89v90q0 114 55 167t176 53t178.5 -49t57.5 -171h-141q0 63 -20.5 91.5t-66.5 28.5q-52 0 -71 -31.5t-19 -88.5v-90h238v-108h-238v-16q0 -65 -23 -105.5t-82 -63.5h453z" />
    <glyph glyph-name="currency" unicode="&#xa4;" horiz-adv-x="627" 
d="M587 477l-50 -50q45 -61 45 -177q0 -117 -45 -178l50 -50l-75 -75l-62 63q-54 -19 -136 -19t-136 19l-62 -63l-76 75l50 50q-45 61 -45 178q0 116 45 177l-50 50l75 76l63 -63q54 19 136 19t136 -19l62 63zM194 250q0 -80 28.5 -116t91.5 -36t91.5 36t28.5 116t-28.5 116
t-91.5 36t-91.5 -36t-28.5 -116z" />
    <glyph glyph-name="yen" unicode="&#xa5;" horiz-adv-x="684" 
d="M424 268v-58h204v-100h-204v-110h-156v110h-212v100h212v58l-17 30h-195v100h137l-173 302h181l145 -279l145 279h173l-168 -302h132v-100h-187z" />
    <glyph glyph-name="section" unicode="&#xa7;" horiz-adv-x="644" 
d="M320 612q-47 0 -68.5 -18.5t-21.5 -59.5q0 -26 20.5 -44.5t53.5 -29t73 -20.5t80 -24t73 -34.5t53.5 -56.5t20.5 -86q0 -109 -77 -151q27 -40 27 -96q0 -111 -59 -161.5t-189 -50.5q-119 0 -172.5 52.5t-53.5 167.5h124q0 -59 24 -85.5t78 -26.5q52 0 75.5 19t23.5 61
q0 34 -27 56t-67.5 31.5t-88 23.5t-88 31t-67.5 56t-27 96q0 109 87 147q-37 43 -37 109q0 106 54.5 154t175.5 48q118 0 171 -52t53 -168h-124q0 59 -23.5 85.5t-76.5 26.5zM231 343q-51 -15 -51 -66q0 -35 35 -54t108.5 -36.5t107.5 -31.5q33 19 33 66q0 26 -23.5 45.5
t-51.5 28.5t-78.5 23t-79.5 25z" />
    <glyph glyph-name="dieresis" unicode="&#xa8;" horiz-adv-x="453" 
d="M116 742q45 0 65.5 -19.5t20.5 -62.5t-20.5 -62.5t-65.5 -19.5t-65.5 19.5t-20.5 62.5t20.5 62.5t65.5 19.5zM336 742q46 0 66.5 -19.5t20.5 -62.5t-20.5 -62.5t-66.5 -19.5q-45 0 -65.5 19.5t-20.5 62.5t20.5 62.5t65.5 19.5z" />
    <glyph glyph-name="copyright" unicode="&#xa9;" horiz-adv-x="852" 
d="M426 720q203 0 294.5 -88t91.5 -282t-91.5 -282t-294.5 -88t-294.5 88t-91.5 282t91.5 282t294.5 88zM426 72q150 0 218 66t68 212t-68 212t-218 66t-218 -66t-68 -212t68 -212t218 -66zM426 550q98 0 146.5 -38t58.5 -122h-116q-8 40 -29 58t-60 18q-49 0 -70.5 -27.5
t-21.5 -88.5q0 -116 92 -116q39 0 60 17.5t30 58.5h116q-10 -84 -59 -122t-147 -38q-109 0 -158.5 47.5t-49.5 152.5t49.5 152.5t158.5 47.5z" />
    <glyph glyph-name="guillemotleft" unicode="&#xab;" horiz-adv-x="531" 
d="M157 450h141l-119 -190l119 -200h-141l-127 200zM360 450h141l-119 -190l119 -200h-141l-128 200z" />
    <glyph glyph-name="logicalnot" unicode="&#xac;" horiz-adv-x="590" 
d="M550 320v-238h-117v130h-403v108h520z" />
    <glyph glyph-name="registered" unicode="&#xae;" horiz-adv-x="852" 
d="M426 720q203 0 294.5 -88t91.5 -282t-91.5 -282t-294.5 -88t-294.5 88t-91.5 282t91.5 282t294.5 88zM426 72q151 0 218.5 66t67.5 212t-67.5 212t-218.5 66t-218.5 -66t-67.5 -212t67.5 -212t218.5 -66zM524 303l88 -133h-101l-76 124h-73v-124h-91l-1 360h178
q81 0 117.5 -28t36.5 -90q0 -87 -78 -109zM362 462v-100h86q33 0 47.5 11.5t13.5 38.5q0 26 -14 38t-47 12h-86z" />
    <glyph glyph-name="macron" unicode="&#xaf;" horiz-adv-x="400" 
d="M30 604v84h340v-84h-340z" />
    <glyph glyph-name="degree" unicode="&#xb0;" horiz-adv-x="440" 
d="M30 520q0 100 45 145t145 45t145 -45t45 -145t-45 -145t-145 -45t-145 45t-45 145zM122 520q0 -56 23 -81t75 -25t74.5 25t22.5 81t-22.5 81t-74.5 25t-75 -25t-23 -81z" />
    <glyph glyph-name="plusminus" unicode="&#xb1;" horiz-adv-x="580" 
d="M30 0v108h520v-108h-520zM550 388v-108h-202v-124h-116v124h-202v108h202v112h116v-112h202z" />
    <glyph glyph-name="acute" unicode="&#xb4;" horiz-adv-x="306" 
d="M30 550l96 150h150l-129 -150h-117z" />
    <glyph glyph-name="paragraph" unicode="&#xb6;" horiz-adv-x="810" 
d="M656 592v-792h-125v792h-163v-792h-124v500q-112 0 -163 47.5t-51 152.5t59.5 152.5t190.5 47.5h470v-108h-94z" />
    <glyph glyph-name="periodcentered" unicode="&#xb7;" horiz-adv-x="232" 
d="M116 338q45 0 65.5 -19.5t20.5 -62.5t-20.5 -62.5t-65.5 -19.5t-65.5 19.5t-20.5 62.5t20.5 62.5t65.5 19.5z" />
    <glyph glyph-name="cedilla" unicode="&#xb8;" horiz-adv-x="266" 
d="M85 32h78l-21 -82l10 -2.5t22.5 -8.5t29 -16t22.5 -26t10 -37q0 -52 -54.5 -81t-151.5 -29v60q97 0 97 50q0 19 -23.5 28.5t-55.5 9.5z" />
    <glyph glyph-name="guillemotright" unicode="&#xbb;" horiz-adv-x="533" 
d="M30 450h141l129 -190l-129 -200h-141l121 200zM232 450h142l129 -190l-129 -200h-142l122 200z" />
    <glyph glyph-name="questiondown" unicode="&#xbf;" horiz-adv-x="552" 
d="M352 250q0 -48 -12 -83.5t-30.5 -54t-40 -35t-40 -27.5t-30.5 -31.5t-12 -48.5q0 -43 23 -62.5t74 -19.5q52 0 75 29t23 93h140q0 -121 -58 -175.5t-188 -54.5q-129 0 -187.5 45t-58.5 145q0 50 20.5 83.5t49.5 51t58 34t49.5 43.5t20.5 68h124zM290 343q-45 0 -65.5 20
t-20.5 63t20.5 62.5t65.5 19.5q46 0 66 -19.5t20 -62.5q0 -44 -20 -63.5t-66 -19.5z" />
    <glyph glyph-name="Agrave" unicode="&#xc0;" horiz-adv-x="692" 
d="M510 0l-42 144h-249l-44 -144h-165l229 700h230l213 -700h-172zM347 564l-95 -312h185zM423 750h-109l-127 120h134z" />
    <glyph glyph-name="Aacute" unicode="&#xc1;" horiz-adv-x="692" 
d="M510 0l-42 144h-249l-44 -144h-165l229 700h230l213 -700h-172zM347 564l-95 -312h185zM283 750l95 120h142l-119 -120h-118z" />
    <glyph glyph-name="Acircumflex" unicode="&#xc2;" horiz-adv-x="692" 
d="M510 0l-42 144h-249l-44 -144h-165l229 700h230l213 -700h-172zM347 564l-95 -312h185zM513 750h-101l-59 60l-59 -60h-101l86 120h148z" />
    <glyph glyph-name="Atilde" unicode="&#xc3;" horiz-adv-x="692" 
d="M510 0l-42 144h-249l-44 -144h-165l229 700h230l213 -700h-172zM347 564l-95 -312h185zM187 760q0 51 29 79.5t73 28.5q48 0 87.5 -25t56.5 -25q11 0 18.5 9t7.5 23h60q0 -51 -29 -79.5t-73 -28.5q-48 0 -87.5 25t-56.5 25q-11 0 -18.5 -9t-7.5 -23h-60z" />
    <glyph glyph-name="Adieresis" unicode="&#xc4;" horiz-adv-x="692" 
d="M510 0l-42 144h-249l-44 -144h-165l229 700h230l213 -700h-172zM347 564l-95 -312h185zM235 876q45 0 65.5 -16.5t20.5 -53.5t-20.5 -53.5t-65.5 -16.5q-46 0 -66 16.5t-20 53.5t20 53.5t66 16.5zM471 876q45 0 66 -16.5t21 -53.5t-20.5 -53.5t-66.5 -16.5
q-45 0 -65.5 16.5t-20.5 53.5t20.5 53.5t65.5 16.5z" />
    <glyph glyph-name="Aring" unicode="&#xc5;" horiz-adv-x="692" 
d="M510 0l-42 144h-249l-44 -144h-165l229 700h230l213 -700h-172zM347 564l-95 -312h185zM353 940q65 0 94.5 -25t29.5 -81t-29.5 -81t-94.5 -25t-94.5 25t-29.5 81t29.5 81t94.5 25zM353 788q26 0 37 11t11 35q0 25 -11 35.5t-37 10.5t-37 -10.5t-11 -35.5q0 -46 48 -46z
" />
    <glyph glyph-name="AE" unicode="&#xc6;" horiz-adv-x="942" 
d="M912 584h-305v-164h265v-116h-265v-188h305v-116h-454v144h-214l-69 -144h-165l350 700h552v-116zM458 587l-161 -335h161v335z" />
    <glyph glyph-name="Ccedilla" unicode="&#xc7;" horiz-adv-x="766" 
d="M350 -19q-162 10 -236 98.5t-74 270.5q0 194 84.5 282t271.5 88q153 0 231 -61t99 -195h-164q-15 70 -54 100.5t-112 30.5q-96 0 -139.5 -58t-43.5 -187t43.5 -187t139.5 -58q70 0 109 30.5t57 100.5h164q-30 -127 -101 -188t-197 -67l-8 -31l10 -2.5t22.5 -8.5t29 -16
t22.5 -26t10 -37q0 -52 -54.5 -81t-151.5 -29v60q98 0 98 50q0 19 -23.5 28.5t-56.5 9.5z" />
    <glyph glyph-name="Egrave" unicode="&#xc8;" horiz-adv-x="614" 
d="M584 584h-339v-164h299v-116h-299v-188h339v-116h-504v700h504v-116zM402 750h-110l-126 120h134z" />
    <glyph glyph-name="Eacute" unicode="&#xc9;" horiz-adv-x="614" 
d="M584 584h-339v-164h299v-116h-299v-188h339v-116h-504v700h504v-116zM262 750l94 120h142l-118 -120h-118z" />
    <glyph glyph-name="Ecircumflex" unicode="&#xca;" horiz-adv-x="614" 
d="M584 584h-339v-164h299v-116h-299v-188h339v-116h-504v700h504v-116zM492 750h-101l-59 60l-59 -60h-101l86 120h148z" />
    <glyph glyph-name="Edieresis" unicode="&#xcb;" horiz-adv-x="614" 
d="M584 584h-339v-164h299v-116h-299v-188h339v-116h-504v700h504v-116zM214 876q45 0 65.5 -16.5t20.5 -53.5t-20.5 -53.5t-66.5 -16.5q-45 0 -65 16.5t-20 53.5t20 53.5t66 16.5zM450 876q45 0 66 -16.5t21 -53.5t-21 -53.5t-66 -16.5t-65.5 16.5t-20.5 53.5t20.5 53.5
t65.5 16.5z" />
    <glyph glyph-name="Igrave" unicode="&#xcc;" horiz-adv-x="329" 
d="M84 700h165v-700h-165v700zM236 750h-109l-127 120h134z" />
    <glyph glyph-name="Iacute" unicode="&#xcd;" horiz-adv-x="329" 
d="M80 700h165v-700h-165v700zM92 750l95 120h142l-119 -120h-118z" />
    <glyph glyph-name="Icircumflex" unicode="&#xce;" horiz-adv-x="320" 
d="M78 700h165v-700h-165v700zM320 750h-101l-59 60l-58 -60h-102l86 120h149z" />
    <glyph glyph-name="Idieresis" unicode="&#xcf;" horiz-adv-x="325" 
d="M80 700h165v-700h-165v700zM46 874q45 0 65.5 -16.5t20.5 -53.5t-20.5 -53.5t-65.5 -16.5t-65.5 16.5t-20.5 53.5t20 53.5t66 16.5zM278 874q46 0 66.5 -16.5t20.5 -53.5t-20.5 -53.5t-66.5 -16.5q-45 0 -65.5 16.5t-20.5 53.5t20.5 53.5t65.5 16.5z" />
    <glyph glyph-name="Ntilde" unicode="&#xd1;" horiz-adv-x="772" 
d="M536 700h156v-700h-190l-265 495v-495h-157v700h191l265 -495v495zM220 760q0 51 29 79.5t73 28.5q48 0 87.5 -25t56.5 -25q11 0 18.5 9t7.5 23h60q0 -51 -29 -79.5t-73 -28.5q-48 0 -87.5 25t-56.5 25q-11 0 -18.5 -9t-7.5 -23h-60z" />
    <glyph glyph-name="Ograve" unicode="&#xd2;" horiz-adv-x="796" 
d="M398 720q188 0 273 -88t85 -282t-85 -282t-273 -88t-273 88t-85 282t85 282t273 88zM398 595q-97 0 -141 -58t-44 -187t44 -187t141 -58q98 0 142 58t44 187t-44 187t-142 58zM468 750h-110l-126 120h134z" />
    <glyph glyph-name="Oacute" unicode="&#xd3;" horiz-adv-x="796" 
d="M398 720q188 0 273 -88t85 -282t-85 -282t-273 -88t-273 88t-85 282t85 282t273 88zM398 595q-97 0 -141 -58t-44 -187t44 -187t141 -58q98 0 142 58t44 187t-44 187t-142 58zM328 750l94 120h142l-118 -120h-118z" />
    <glyph glyph-name="Ocircumflex" unicode="&#xd4;" horiz-adv-x="796" 
d="M398 720q188 0 273 -88t85 -282t-85 -282t-273 -88t-273 88t-85 282t85 282t273 88zM398 595q-97 0 -141 -58t-44 -187t44 -187t141 -58q98 0 142 58t44 187t-44 187t-142 58zM558 750h-101l-59 60l-59 -60h-101l86 120h148z" />
    <glyph glyph-name="Otilde" unicode="&#xd5;" horiz-adv-x="796" 
d="M398 720q188 0 273 -88t85 -282t-85 -282t-273 -88t-273 88t-85 282t85 282t273 88zM398 595q-97 0 -141 -58t-44 -187t44 -187t141 -58q98 0 142 58t44 187t-44 187t-142 58zM232 760q0 51 29 79.5t73 28.5q48 0 87.5 -25t56.5 -25q11 0 18.5 9t7.5 23h60
q0 -51 -29 -79.5t-73 -28.5q-48 0 -87.5 25t-56.5 25q-11 0 -18.5 -9t-7.5 -23h-60z" />
    <glyph glyph-name="Odieresis" unicode="&#xd6;" horiz-adv-x="796" 
d="M398 720q188 0 273 -88t85 -282t-85 -282t-273 -88t-273 88t-85 282t85 282t273 88zM398 595q-97 0 -141 -58t-44 -187t44 -187t141 -58q98 0 142 58t44 187t-44 187t-142 58zM280 874q45 0 65.5 -16.5t20.5 -53.5t-20.5 -53.5t-65.5 -16.5q-46 0 -66 16.5t-20 53.5
t20 53.5t66 16.5zM516 874q45 0 66 -16.5t21 -53.5t-20.5 -53.5t-66.5 -16.5q-45 0 -65.5 16.5t-20.5 53.5t20.5 53.5t65.5 16.5z" />
    <glyph glyph-name="multiply" unicode="&#xd7;" horiz-adv-x="542" 
d="M111 491l159 -158l159 159l83 -84l-158 -158l158 -158l-83 -84l-158 159l-158 -158l-83 84l158 158l-158 158z" />
    <glyph glyph-name="Oslash" unicode="&#xd8;" horiz-adv-x="795" 
d="M482 714l23 64h98l-30 -86q94 -34 138 -118t44 -225q0 -194 -85 -282t-273 -88q-38 0 -71 3l-22 -63h-100l29 82q-100 33 -146.5 117.5t-46.5 230.5q0 194 85 282t273 88q41 0 84 -5zM440 591q-19 3 -40 3q-97 0 -141 -58t-44 -187q0 -157 67 -211zM370 106q9 -1 29 -1
q98 0 142 58t44 187q0 147 -59 203z" />
    <glyph glyph-name="Ugrave" unicode="&#xd9;" horiz-adv-x="736" 
d="M70 258v442h165v-442q0 -81 31.5 -117t101.5 -36q71 0 102.5 36t31.5 117v442h164v-442q0 -146 -70.5 -212t-227.5 -66t-227.5 66t-70.5 212zM438 750h-110l-126 120h134z" />
    <glyph glyph-name="Uacute" unicode="&#xda;" horiz-adv-x="736" 
d="M70 258v442h165v-442q0 -81 31.5 -117t101.5 -36q71 0 102.5 36t31.5 117v442h164v-442q0 -146 -70.5 -212t-227.5 -66t-227.5 66t-70.5 212zM298 750l94 120h142l-118 -120h-118z" />
    <glyph glyph-name="Ucircumflex" unicode="&#xdb;" horiz-adv-x="736" 
d="M70 258v442h165v-442q0 -81 31.5 -117t101.5 -36q71 0 102.5 36t31.5 117v442h164v-442q0 -146 -70.5 -212t-227.5 -66t-227.5 66t-70.5 212zM528 750h-101l-59 60l-59 -60h-101l86 120h148z" />
    <glyph glyph-name="Udieresis" unicode="&#xdc;" horiz-adv-x="736" 
d="M70 258v442h165v-442q0 -81 31.5 -117t101.5 -36q71 0 102.5 36t31.5 117v442h164v-442q0 -146 -70.5 -212t-227.5 -66t-227.5 66t-70.5 212zM250 874q45 0 65.5 -16.5t20.5 -53.5t-20.5 -53.5t-65.5 -16.5q-46 0 -66 16.5t-20 53.5t20 53.5t66 16.5zM486 874
q45 0 66 -16.5t21 -53.5t-20.5 -53.5t-66.5 -16.5q-45 0 -65.5 16.5t-20.5 53.5t20.5 53.5t65.5 16.5z" />
    <glyph glyph-name="Yacute" unicode="&#xdd;" horiz-adv-x="664" 
d="M414 268v-268h-156v268l-248 432h181l145 -279l145 279h173zM268 750l95 120h142l-119 -120h-118z" />
    <glyph glyph-name="germandbls" unicode="&#xdf;" horiz-adv-x="665" 
d="M334 720q57 0 99.5 -7.5t81 -27t59 -58.5t20.5 -97q0 -54 -26 -86t-83 -51q74 -20 107 -64t33 -121q0 -109 -50.5 -158.5t-160.5 -49.5q-25 0 -52 5t-42 10l-14 5v100q36 -12 68 -12q53 0 77.5 26t24.5 82q0 118 -150 118v102q68 0 98 19.5t30 64.5q0 48 -26.5 70
t-85.5 22q-65 0 -94.5 -32t-29.5 -96v-484h-148v472q0 128 66.5 188t197.5 60z" />
    <glyph glyph-name="agrave" unicode="&#xe0;" horiz-adv-x="556" 
d="M373 42q-46 -52 -155 -52q-99 0 -143.5 37.5t-44.5 120.5q0 89 57.5 129.5t184.5 40.5h86v22q0 45 -20 65.5t-64 20.5t-64 -18t-19 -58h-141q0 84 54 122t174 38q119 0 173.5 -44.5t54.5 -141.5v-324h-116zM358 234h-65q-26 0 -43 -2.5t-35.5 -9.5t-27.5 -23.5t-9 -42.5
q0 -36 18.5 -51t61.5 -15q57 0 78.5 30t21.5 89v25zM252 700l96 -150h-117l-129 150h150z" />
    <glyph glyph-name="aacute" unicode="&#xe1;" horiz-adv-x="556" 
d="M373 42q-46 -52 -155 -52q-99 0 -143.5 37.5t-44.5 120.5q0 89 57.5 129.5t184.5 40.5h86v22q0 45 -20 65.5t-64 20.5t-64 -18t-19 -58h-141q0 84 54 122t174 38q119 0 173.5 -44.5t54.5 -141.5v-324h-116zM358 234h-65q-26 0 -43 -2.5t-35.5 -9.5t-27.5 -23.5t-9 -42.5
q0 -36 18.5 -51t61.5 -15q57 0 78.5 30t21.5 89v25zM297 700h149l-128 -150h-118z" />
    <glyph glyph-name="acircumflex" unicode="&#xe2;" horiz-adv-x="556" 
d="M373 42q-46 -52 -155 -52q-99 0 -143.5 37.5t-44.5 120.5q0 89 57.5 129.5t184.5 40.5h86v22q0 45 -20 65.5t-64 20.5t-64 -18t-19 -58h-141q0 84 54 122t174 38q119 0 173.5 -44.5t54.5 -141.5v-324h-116zM358 234h-65q-26 0 -43 -2.5t-35.5 -9.5t-27.5 -23.5t-9 -42.5
q0 -36 18.5 -51t61.5 -15q57 0 78.5 30t21.5 89v25zM352 700l84 -150h-93l-65 82l-65 -82h-93l84 150h148z" />
    <glyph glyph-name="atilde" unicode="&#xe3;" horiz-adv-x="556" 
d="M373 42q-46 -52 -155 -52q-99 0 -143.5 37.5t-44.5 120.5q0 89 57.5 129.5t184.5 40.5h86v22q0 45 -20 65.5t-64 20.5t-64 -18t-19 -58h-141q0 84 54 122t174 38q119 0 173.5 -44.5t54.5 -141.5v-324h-116zM358 234h-65q-26 0 -43 -2.5t-35.5 -9.5t-27.5 -23.5t-9 -42.5
q0 -36 18.5 -51t61.5 -15q57 0 78.5 30t21.5 89v25zM112 578q0 52 30 89t72 37q29 0 52.5 -12t35 -26.5t24.5 -27t24 -12.5t18.5 11t7.5 31h68q0 -52 -30 -89t-72 -37q-29 0 -52 12t-34.5 27t-25 27t-24.5 12t-18.5 -11t-7.5 -31h-68z" />
    <glyph glyph-name="adieresis" unicode="&#xe4;" horiz-adv-x="556" 
d="M373 42q-46 -52 -155 -52q-99 0 -143.5 37.5t-44.5 120.5q0 89 57.5 129.5t184.5 40.5h86v22q0 45 -20 65.5t-64 20.5t-64 -18t-19 -58h-141q0 84 54 122t174 38q119 0 173.5 -44.5t54.5 -141.5v-324h-116zM358 234h-65q-26 0 -43 -2.5t-35.5 -9.5t-27.5 -23.5t-9 -42.5
q0 -36 18.5 -51t61.5 -15q57 0 78.5 30t21.5 89v25zM168 728q45 0 65.5 -19.5t20.5 -62.5t-20.5 -62.5t-65.5 -19.5q-46 0 -66 19t-20 63t20 63t66 19zM388 728q46 0 66.5 -19.5t20.5 -62.5t-21 -62.5t-66 -19.5t-65.5 19.5t-20.5 62.5t20.5 62.5t65.5 19.5z" />
    <glyph glyph-name="aring" unicode="&#xe5;" horiz-adv-x="556" 
d="M373 42q-46 -52 -155 -52q-99 0 -143.5 37.5t-44.5 120.5q0 89 57.5 129.5t184.5 40.5h86v22q0 45 -20 65.5t-64 20.5t-64 -18t-19 -58h-141q0 84 54 122t174 38q119 0 173.5 -44.5t54.5 -141.5v-324h-116zM358 234h-65q-26 0 -43 -2.5t-35.5 -9.5t-27.5 -23.5t-9 -42.5
q0 -36 18.5 -51t61.5 -15q57 0 78.5 30t21.5 89v25zM278 740q65 0 94.5 -25t29.5 -81t-29.5 -81t-94.5 -25t-94.5 25t-29.5 81t29.5 81t94.5 25zM278 588q26 0 37 11t11 35q0 25 -11 35.5t-37 10.5t-37 -10.5t-11 -35.5q0 -46 48 -46z" />
    <glyph glyph-name="ae" unicode="&#xe6;" horiz-adv-x="924" 
d="M507 202q6 -62 32 -91t78 -29q79 0 97 74h141q-17 -87 -73 -126.5t-165 -39.5q-151 0 -196 111q-37 -111 -203 -111q-99 0 -143.5 37.5t-44.5 120.5q0 85 51.5 125.5t165.5 44.5h111v22q0 41 -20.5 59.5t-67.5 18.5q-43 0 -61.5 -16t-17.5 -52h-141q0 84 54 122t174 38
q124 0 168 -67q51 67 170 67q136 0 197 -62.5t61 -201.5v-44h-367zM358 234h-70q-58 0 -84 -18.5t-26 -59.5q0 -35 20.5 -50.5t66.5 -15.5q49 0 71 25t22 81v38zM617 418q-53 0 -79.5 -31.5t-31.5 -100.5h220q1 70 -25 101t-84 31z" />
    <glyph glyph-name="ccedilla" unicode="&#xe7;" 
d="M253 -8q-117 9 -170 70.5t-53 187.5q0 137 63.5 198.5t204.5 61.5q119 0 178 -46t70 -148h-148q-8 45 -32 65.5t-68 20.5q-63 0 -91.5 -36t-28.5 -116t28.5 -116t91.5 -36q43 0 67 20.5t33 65.5h148q-11 -95 -62 -141t-154 -52l-10 -41l10 -2.5t22.5 -8.5t29 -16
t22.5 -26t10 -37q0 -52 -54.5 -81t-151.5 -29v60q98 0 98 50q0 19 -23.5 28.5t-56.5 9.5z" />
    <glyph glyph-name="egrave" unicode="&#xe8;" 
d="M179 202q6 -62 32 -91t77 -29q43 0 65.5 17.5t32.5 56.5h140q-17 -87 -73 -126.5t-165 -39.5q-136 0 -197 61.5t-61 198.5t61 198.5t197 61.5t197 -62.5t61 -201.5v-44h-367zM289 418q-53 0 -79.5 -31.5t-31.5 -100.5h221q0 70 -26 101t-84 31zM359 550h-117l-129 150
h150z" />
    <glyph glyph-name="eacute" unicode="&#xe9;" 
d="M179 202q6 -62 32 -91t77 -29q43 0 65.5 17.5t32.5 56.5h140q-17 -87 -73 -126.5t-165 -39.5q-136 0 -197 61.5t-61 198.5t61 198.5t197 61.5t197 -62.5t61 -201.5v-44h-367zM289 418q-53 0 -79.5 -31.5t-31.5 -100.5h221q0 70 -26 101t-84 31zM219 550l97 150h149
l-128 -150h-118z" />
    <glyph glyph-name="ecircumflex" unicode="&#xea;" 
d="M179 202q6 -62 32 -91t77 -29q43 0 65.5 17.5t32.5 56.5h140q-17 -87 -73 -126.5t-165 -39.5q-136 0 -197 61.5t-61 198.5t61 198.5t197 61.5t197 -62.5t61 -201.5v-44h-367zM289 418q-53 0 -79.5 -31.5t-31.5 -100.5h221q0 70 -26 101t-84 31zM447 550h-93l-65 82
l-65 -82h-93l84 150h148z" />
    <glyph glyph-name="edieresis" unicode="&#xeb;" 
d="M179 202q6 -62 32 -91t77 -29q43 0 65.5 17.5t32.5 56.5h140q-17 -87 -73 -126.5t-165 -39.5q-136 0 -197 61.5t-61 198.5t61 198.5t197 61.5t197 -62.5t61 -201.5v-44h-367zM289 418q-53 0 -79.5 -31.5t-31.5 -100.5h221q0 70 -26 101t-84 31zM179 728q45 0 65.5 -19.5
t20.5 -62.5t-20.5 -62.5t-65.5 -19.5q-46 0 -66 19t-20 63t20 63t66 19zM399 728q46 0 66.5 -19.5t20.5 -62.5t-21 -62.5t-66 -19.5t-65.5 19.5t-20.5 62.5t20.5 62.5t65.5 19.5z" />
    <glyph glyph-name="igrave" unicode="&#xec;" horiz-adv-x="250" 
d="M200 0h-148v500h148v-500zM196 550h-117l-129 150h150z" />
    <glyph glyph-name="iacute" unicode="&#xed;" horiz-adv-x="257" 
d="M202 0h-148v500h148v-500zM50 550l97 150h150l-129 -150h-118z" />
    <glyph glyph-name="icircumflex" unicode="&#xee;" horiz-adv-x="256" 
d="M202 0h-148v500h148v-500zM286 550h-93l-65 82l-65 -82h-93l84 150h148z" />
    <glyph glyph-name="idieresis" unicode="&#xef;" horiz-adv-x="249" 
d="M198 0h-148v500h148v-500zM16 723q45 0 65.5 -20t20.5 -63t-20.5 -62.5t-65.5 -19.5q-46 0 -66 19.5t-20 62.5q0 44 20 63.5t66 19.5zM232 723q46 0 66.5 -19.5t20.5 -63.5q0 -43 -20.5 -62.5t-66.5 -19.5q-45 0 -65.5 19.5t-20.5 62.5t20.5 63t65.5 20z" />
    <glyph glyph-name="ntilde" unicode="&#xf1;" horiz-adv-x="586" 
d="M176 500l-1 -1l18 -39q49 50 147 50q103 0 149.5 -57t46.5 -183v-270h-148v270q0 70 -21 101t-67 31q-48 0 -70 -28.5t-22 -91.5v-282h-148v500h116zM131 578q0 52 30 89t72 37q29 0 52.5 -12t35 -26.5t24.5 -27t24 -12.5t18.5 11t7.5 31h68q0 -52 -30 -89t-72 -37
q-29 0 -52 12t-34.5 27t-25 27t-24.5 12t-18.5 -11t-7.5 -31h-68z" />
    <glyph glyph-name="ograve" unicode="&#xf2;" horiz-adv-x="596" 
d="M298 510q141 0 204.5 -61.5t63.5 -198.5t-63.5 -198.5t-204.5 -61.5t-204.5 61.5t-63.5 198.5t63.5 198.5t204.5 61.5zM178 250q0 -80 28.5 -116t91.5 -36t91.5 36t28.5 116t-28.5 116t-91.5 36t-91.5 -36t-28.5 -116zM368 550h-117l-129 150h150z" />
    <glyph glyph-name="oacute" unicode="&#xf3;" horiz-adv-x="596" 
d="M298 510q141 0 204.5 -61.5t63.5 -198.5t-63.5 -198.5t-204.5 -61.5t-204.5 61.5t-63.5 198.5t63.5 198.5t204.5 61.5zM178 250q0 -80 28.5 -116t91.5 -36t91.5 36t28.5 116t-28.5 116t-91.5 36t-91.5 -36t-28.5 -116zM228 550l97 150h149l-128 -150h-118z" />
    <glyph glyph-name="ocircumflex" unicode="&#xf4;" horiz-adv-x="596" 
d="M298 510q141 0 204.5 -61.5t63.5 -198.5t-63.5 -198.5t-204.5 -61.5t-204.5 61.5t-63.5 198.5t63.5 198.5t204.5 61.5zM178 250q0 -80 28.5 -116t91.5 -36t91.5 36t28.5 116t-28.5 116t-91.5 36t-91.5 -36t-28.5 -116zM456 550h-93l-65 82l-65 -82h-93l84 150h148z" />
    <glyph glyph-name="otilde" unicode="&#xf5;" horiz-adv-x="596" 
d="M298 510q141 0 204.5 -61.5t63.5 -198.5t-63.5 -198.5t-204.5 -61.5t-204.5 61.5t-63.5 198.5t63.5 198.5t204.5 61.5zM178 250q0 -80 28.5 -116t91.5 -36t91.5 36t28.5 116t-28.5 116t-91.5 36t-91.5 -36t-28.5 -116zM132 578q0 52 30 89t72 37q29 0 52.5 -12t35 -26.5
t24.5 -27t24 -12.5t18.5 11t7.5 31h68q0 -52 -30 -89t-72 -37q-29 0 -52 12t-34.5 27t-25 27t-24.5 12t-18.5 -11t-7.5 -31h-68z" />
    <glyph glyph-name="odieresis" unicode="&#xf6;" horiz-adv-x="596" 
d="M298 510q141 0 204.5 -61.5t63.5 -198.5t-63.5 -198.5t-204.5 -61.5t-204.5 61.5t-63.5 198.5t63.5 198.5t204.5 61.5zM178 250q0 -80 28.5 -116t91.5 -36t91.5 36t28.5 116t-28.5 116t-91.5 36t-91.5 -36t-28.5 -116zM188 728q45 0 65.5 -19.5t20.5 -62.5t-20.5 -62.5
t-65.5 -19.5q-46 0 -66 19t-20 63t20 63t66 19zM408 728q46 0 66.5 -19.5t20.5 -62.5t-21 -62.5t-66 -19.5t-65.5 19.5t-20.5 62.5t20.5 62.5t65.5 19.5z" />
    <glyph glyph-name="divide" unicode="&#xf7;" horiz-adv-x="580" 
d="M550 210h-520v108h520v-108zM210 68q0 34 22 55t58 21t58 -21t22 -55t-22 -55t-58 -21t-58 21t-22 55zM210 460q0 34 22.5 55t58.5 21t58 -21t22 -55t-22 -55t-58 -21q-37 0 -59 21t-22 55z" />
    <glyph glyph-name="oslash" unicode="&#xf8;" horiz-adv-x="595" 
d="M298 510q28 0 54 -3l21 62h68l-26 -74q78 -22 114 -82t36 -164q0 -137 -63.5 -198.5t-204.5 -61.5q-29 0 -54 3l-21 -62h-68l26 74q-78 22 -114 82t-36 164q0 137 63.5 198.5t204.5 61.5zM178 250q0 -97 42 -130l96 281q-6 1 -18 1q-63 0 -91.5 -36t-28.5 -116zM376 379
l-96 -280q6 -1 18 -1q63 0 91.5 36t28.5 116q0 96 -42 129z" />
    <glyph glyph-name="ugrave" unicode="&#xf9;" horiz-adv-x="586" 
d="M410 0l1 1l-18 39q-49 -50 -147 -50q-103 0 -149.5 57t-46.5 183v270h148v-270q0 -70 21 -101t67 -31q92 0 92 120l1 282h147v-500h-116zM281 700l96 -150h-117l-129 150h150z" />
    <glyph glyph-name="uacute" unicode="&#xfa;" horiz-adv-x="586" 
d="M410 0l1 1l-18 39q-49 -50 -147 -50q-103 0 -149.5 57t-46.5 183v270h148v-270q0 -70 21 -101t67 -31q92 0 92 120l1 282h147v-500h-116zM294 700h149l-128 -150h-118z" />
    <glyph glyph-name="ucircumflex" unicode="&#xfb;" horiz-adv-x="586" 
d="M410 0l1 1l-18 39q-49 -50 -147 -50q-103 0 -149.5 57t-46.5 183v270h148v-270q0 -70 21 -101t67 -31q92 0 92 120l1 282h147v-500h-116zM361 700l84 -150h-93l-65 82l-65 -82h-93l84 150h148z" />
    <glyph glyph-name="udieresis" unicode="&#xfc;" horiz-adv-x="586" 
d="M410 0l1 1l-18 39q-49 -50 -147 -50q-103 0 -149.5 57t-46.5 183v270h148v-270q0 -70 21 -101t67 -31q92 0 92 120l1 282h147v-500h-116zM171 728q45 0 65.5 -19.5t20.5 -62.5t-20.5 -62.5t-65.5 -19.5q-46 0 -66 19t-20 63t20 63t66 19zM391 728q46 0 66.5 -19.5
t20.5 -62.5t-21 -62.5t-66 -19.5t-65.5 19.5t-20.5 62.5t20.5 62.5t65.5 19.5z" />
    <glyph glyph-name="yacute" unicode="&#xfd;" horiz-adv-x="536" 
d="M222 2h-1l4 11l-216 487h141l131 -316l104 316h140l-168 -482q-38 -104 -88 -151t-122 -47h-72v92h64q28 0 47.5 21.5t35.5 68.5zM214 550l97 150h149l-128 -150h-118z" />
    <glyph glyph-name="ydieresis" unicode="&#xff;" horiz-adv-x="536" 
d="M222 2h-1l4 11l-216 487h141l131 -316l104 316h140l-168 -482q-38 -104 -88 -151t-122 -47h-72v92h64q28 0 47.5 21.5t35.5 68.5zM166 728q45 0 65.5 -19.5t20.5 -62.5t-20.5 -62.5t-65.5 -19.5q-46 0 -66 19t-20 63q0 43 20.5 62.5t65.5 19.5zM386 728q46 0 66.5 -19.5
t20.5 -62.5t-20.5 -62.5t-66.5 -19.5q-45 0 -65.5 19.5t-20.5 62.5t20.5 62.5t65.5 19.5z" />
    <glyph glyph-name="Amacron" unicode="&#x100;" horiz-adv-x="692" 
d="M510 0l-42 144h-249l-44 -144h-165l229 700h230l213 -700h-172zM347 564l-95 -312h185zM183 840h340v-84h-340v84z" />
    <glyph glyph-name="amacron" unicode="&#x101;" horiz-adv-x="556" 
d="M373 42q-46 -52 -155 -52q-99 0 -143.5 37.5t-44.5 120.5q0 89 57.5 129.5t184.5 40.5h86v22q0 45 -20 65.5t-64 20.5t-64 -18t-19 -58h-141q0 84 54 122t174 38q119 0 173.5 -44.5t54.5 -141.5v-324h-116zM358 234h-65q-26 0 -43 -2.5t-35.5 -9.5t-27.5 -23.5t-9 -42.5
q0 -36 18.5 -51t61.5 -15q57 0 78.5 30t21.5 89v25zM108 582v84h340v-84h-340z" />
    <glyph glyph-name="Abreve" unicode="&#x102;" horiz-adv-x="692" 
d="M510 0l-42 144h-249l-44 -144h-165l229 700h230l213 -700h-172zM347 564l-95 -312h185zM519 870q0 -63 -39.5 -91.5t-126.5 -28.5t-126.5 28.5t-39.5 91.5h108q0 -51 53 -52h5q31 0 44.5 12t13.5 40h108z" />
    <glyph glyph-name="abreve" unicode="&#x103;" horiz-adv-x="556" 
d="M373 42q-46 -52 -155 -52q-99 0 -143.5 37.5t-44.5 120.5q0 89 57.5 129.5t184.5 40.5h86v22q0 45 -20 65.5t-64 20.5t-64 -18t-19 -58h-141q0 84 54 122t174 38q119 0 173.5 -44.5t54.5 -141.5v-324h-116zM358 234h-65q-26 0 -43 -2.5t-35.5 -9.5t-27.5 -23.5t-9 -42.5
q0 -36 18.5 -51t61.5 -15q57 0 78.5 30t21.5 89v25zM344 700h100q0 -79 -39.5 -114.5t-126.5 -35.5t-126.5 35.5t-39.5 114.5h100q0 -39 15.5 -56.5t50.5 -17.5t50.5 17.5t15.5 56.5z" />
    <glyph glyph-name="Aogonek" unicode="&#x104;" horiz-adv-x="692" 
d="M682 0h-38q-47 -42 -51 -85q0 -39 40 -40q11 0 22.5 3t17.5 6l6 4v-118q-30 -20 -70 -20q-59 0 -88.5 43.5t-17 103.5t64.5 103h-58l-42 144h-249l-44 -144h-165l229 700h230zM347 564l-95 -312h185z" />
    <glyph glyph-name="aogonek" unicode="&#x105;" horiz-adv-x="556" 
d="M389 2l-1 1l-16 40q-46 -52 -155 -52q-99 0 -143.5 37.5t-44.5 120.5q0 89 57.5 129.5t184.5 40.5h86v22q0 45 -20 65.5t-64 20.5t-64 -18t-19 -58h-141q0 84 54 122t174 38q119 0 173.5 -44.5t54.5 -141.5v-324h-42q-47 -42 -51 -85q0 -39 40 -40q11 0 22.5 3t17.5 7
l6 3v-118q-30 -20 -70 -20q-59 0 -88.5 43.5t-16.5 104t66 103.5zM358 234h-65q-26 0 -43 -2.5t-35.5 -9.5t-27.5 -23.5t-9 -42.5q0 -36 18.5 -51t61.5 -15q57 0 78.5 30t21.5 89v25z" />
    <glyph glyph-name="Cacute" unicode="&#x106;" horiz-adv-x="766" 
d="M562 236h164q-32 -134 -110 -195t-220 -61q-187 0 -271.5 88t-84.5 282t84.5 282t271.5 88q153 0 231 -61t99 -195h-164q-15 70 -54 100.5t-112 30.5q-96 0 -139.5 -58t-43.5 -187t43.5 -187t139.5 -58q70 0 109 30.5t57 100.5zM328 750l94 120h142l-118 -120h-118z" />
    <glyph glyph-name="cacute" unicode="&#x107;" 
d="M398 184h148q-11 -102 -70 -148t-178 -46q-141 0 -204.5 61.5t-63.5 198.5t63.5 198.5t204.5 61.5q119 0 178 -46t70 -148h-148q-8 45 -32 65.5t-68 20.5q-63 0 -91.5 -36t-28.5 -116t28.5 -116t91.5 -36q43 0 67 20.5t33 65.5zM228 550l97 150h149l-128 -150h-118z" />
    <glyph glyph-name="Ccircumflex" unicode="&#x108;" horiz-adv-x="766" 
d="M562 236h164q-32 -134 -110 -195t-220 -61q-187 0 -271.5 88t-84.5 282t84.5 282t271.5 88q153 0 231 -61t99 -195h-164q-15 70 -54 100.5t-112 30.5q-96 0 -139.5 -58t-43.5 -187t43.5 -187t139.5 -58q70 0 109 30.5t57 100.5zM558 750h-101l-59 60l-59 -60h-101l86 120
h148z" />
    <glyph glyph-name="ccircumflex" unicode="&#x109;" 
d="M398 184h148q-11 -102 -70 -148t-178 -46q-141 0 -204.5 61.5t-63.5 198.5t63.5 198.5t204.5 61.5q119 0 178 -46t70 -148h-148q-8 45 -32 65.5t-68 20.5q-63 0 -91.5 -36t-28.5 -116t28.5 -116t91.5 -36q43 0 67 20.5t33 65.5zM456 550h-93l-65 82l-65 -82h-93l84 150
h148z" />
    <glyph glyph-name="Cdotaccent" unicode="&#x10a;" horiz-adv-x="766" 
d="M562 236h164q-32 -134 -110 -195t-220 -61q-187 0 -271.5 88t-84.5 282t84.5 282t271.5 88q153 0 231 -61t99 -195h-164q-15 70 -54 100.5t-112 30.5q-96 0 -139.5 -58t-43.5 -187t43.5 -187t139.5 -58q70 0 109 30.5t57 100.5zM398 884q45 0 65.5 -16.5t20.5 -53.5
t-20.5 -53.5t-65.5 -16.5t-65.5 16.5t-20.5 53.5t20 53.5t66 16.5z" />
    <glyph glyph-name="cdotaccent" unicode="&#x10b;" 
d="M398 184h148q-11 -102 -70 -148t-178 -46q-141 0 -204.5 61.5t-63.5 198.5t63.5 198.5t204.5 61.5q119 0 178 -46t70 -148h-148q-8 45 -32 65.5t-68 20.5q-63 0 -91.5 -36t-28.5 -116t28.5 -116t91.5 -36q43 0 67 20.5t33 65.5zM298 726q45 0 65.5 -18.5t20.5 -59.5
t-20.5 -59.5t-65.5 -18.5t-65.5 18.5t-20.5 59.5t20.5 59.5t65.5 18.5z" />
    <glyph glyph-name="Ccaron" unicode="&#x10c;" horiz-adv-x="766" 
d="M562 236h164q-32 -134 -110 -195t-220 -61q-187 0 -271.5 88t-84.5 282t84.5 282t271.5 88q153 0 231 -61t99 -195h-164q-15 70 -54 100.5t-112 30.5q-96 0 -139.5 -58t-43.5 -187t43.5 -187t139.5 -58q70 0 109 30.5t57 100.5zM550 870l-86 -120h-148l-86 120h101
l59 -60l59 60h101z" />
    <glyph glyph-name="ccaron" unicode="&#x10d;" 
d="M398 184h148q-11 -102 -70 -148t-178 -46q-141 0 -204.5 61.5t-63.5 198.5t63.5 198.5t204.5 61.5q119 0 178 -46t70 -148h-148q-8 45 -32 65.5t-68 20.5q-63 0 -91.5 -36t-28.5 -116t28.5 -116t91.5 -36q43 0 67 20.5t33 65.5zM456 700l-84 -150h-148l-84 150h93l65 -82
l65 82h93z" />
    <glyph glyph-name="Dcaron" unicode="&#x10e;" horiz-adv-x="742" 
d="M702 350q0 -184 -82.5 -267t-265.5 -83h-274v700h274q183 0 265.5 -83t82.5 -267zM346 584h-101v-468h101q97 0 140.5 55.5t43.5 178.5t-43.5 178.5t-140.5 55.5zM496 870l-86 -120h-148l-86 120h101l59 -60l59 60h101z" />
    <glyph glyph-name="dcaron" unicode="&#x10f;" horiz-adv-x="743" 
d="M248 -10q-115 0 -166.5 61.5t-51.5 198.5t51.5 198.5t166.5 61.5q99 0 150 -45v235h148v-700h-116l-20 47q-51 -57 -162 -57zM288 98q58 0 84 36t26 116t-26 116t-84 36t-84 -36t-26 -116t26 -116t84 -36zM650 708q38 0 50.5 -22t12.5 -62q0 -58 -27.5 -85t-87.5 -27
l1 52q45 0 45 44q-56 0 -56 45q0 55 62 55z" />
    <glyph glyph-name="Dcroat" unicode="&#x110;" horiz-adv-x="762" 
d="M722 350q0 -184 -82.5 -267t-265.5 -83h-274v336h-90v100h90v264h274q183 0 265.5 -83t82.5 -267zM366 584h-101v-148h149v-100h-149v-220h101q97 0 140.5 55.5t43.5 178.5t-43.5 178.5t-140.5 55.5z" />
    <glyph glyph-name="dcroat" unicode="&#x111;" horiz-adv-x="646" 
d="M636 630v-68h-90v-562h-116l-20 47q-51 -57 -162 -57q-115 0 -166.5 61.5t-51.5 198.5t51.5 198.5t166.5 61.5q99 0 150 -45v97h-174v68h174v70h148v-70h90zM288 98q58 0 84 36t26 116t-26 116t-84 36t-84 -36t-26 -116t26 -116t84 -36z" />
    <glyph glyph-name="Emacron" unicode="&#x112;" horiz-adv-x="614" 
d="M584 584h-339v-164h299v-116h-299v-188h339v-116h-504v700h504v-116zM162 840h340v-84h-340v84z" />
    <glyph glyph-name="emacron" unicode="&#x113;" 
d="M179 202q6 -62 32 -91t77 -29q43 0 65.5 17.5t32.5 56.5h140q-17 -87 -73 -126.5t-165 -39.5q-136 0 -197 61.5t-61 198.5t61 198.5t197 61.5t197 -62.5t61 -201.5v-44h-367zM289 418q-53 0 -79.5 -31.5t-31.5 -100.5h221q0 70 -26 101t-84 31zM119 666h340v-84h-340v84z
" />
    <glyph glyph-name="Ebreve" unicode="&#x114;" horiz-adv-x="614" 
d="M584 584h-339v-164h299v-116h-299v-188h339v-116h-504v700h504v-116zM498 870q0 -63 -39.5 -91.5t-126.5 -28.5t-126.5 28.5t-39.5 91.5h108q0 -51 53 -52h5q31 0 44.5 12t13.5 40h108z" />
    <glyph glyph-name="ebreve" unicode="&#x115;" 
d="M179 202q6 -62 32 -91t77 -29q43 0 65.5 17.5t32.5 56.5h140q-17 -87 -73 -126.5t-165 -39.5q-136 0 -197 61.5t-61 198.5t61 198.5t197 61.5t197 -62.5t61 -201.5v-44h-367zM289 418q-53 0 -79.5 -31.5t-31.5 -100.5h221q0 70 -26 101t-84 31zM455 700
q0 -79 -39.5 -114.5t-126.5 -35.5t-126.5 35.5t-39.5 114.5h100q0 -38 14.5 -55.5t46.5 -18.5h5q35 0 50.5 17.5t15.5 56.5h100z" />
    <glyph glyph-name="Edotaccent" unicode="&#x116;" horiz-adv-x="614" 
d="M584 584h-339v-164h299v-116h-299v-188h339v-116h-504v700h504v-116zM332 884q45 0 65.5 -16.5t20.5 -53.5t-20.5 -53.5t-65.5 -16.5t-65.5 16.5t-20.5 53.5t20 53.5t66 16.5z" />
    <glyph glyph-name="edotaccent" unicode="&#x117;" 
d="M179 202q6 -62 32 -91t77 -29q43 0 65.5 17.5t32.5 56.5h140q-17 -87 -73 -126.5t-165 -39.5q-136 0 -197 61.5t-61 198.5t61 198.5t197 61.5t197 -62.5t61 -201.5v-44h-367zM289 418q-53 0 -79.5 -31.5t-31.5 -100.5h221q0 70 -26 101t-84 31zM289 726q45 0 65.5 -18.5
t20.5 -59.5t-20.5 -59.5t-65.5 -18.5t-65.5 18.5t-20.5 59.5t20.5 59.5t65.5 18.5z" />
    <glyph glyph-name="Eogonek" unicode="&#x118;" horiz-adv-x="614" 
d="M584 0h-50q-47 -42 -50 -85q0 -39 40 -40q10 0 21.5 3t18.5 6l6 4v-118q-30 -20 -70 -20q-59 0 -88.5 43.5t-17.5 103.5t64 103h-378v700h504v-116h-339v-164h299v-116h-299v-188h339v-116z" />
    <glyph glyph-name="eogonek" unicode="&#x119;" 
d="M525 155q-13 -66 -47 -104.5t-95 -52.5q-47 -42 -50 -85q0 -38 40 -39q11 0 22.5 3t17.5 7l6 3v-118q-30 -20 -70 -20q-57 0 -86.5 40.5t-20.5 97.5t55 102h-9q-136 0 -197 61.5t-61 198.5t61 198.5t197 61.5t197 -62.5t61 -201.5v-44h-368q6 -62 32 -91t77 -29
q43 0 65.5 17.5t32.5 56.5h140zM287 418q-53 0 -79.5 -31.5t-31.5 -100.5h221q0 70 -26 101t-84 31z" />
    <glyph glyph-name="Ecaron" unicode="&#x11a;" horiz-adv-x="614" 
d="M584 584h-339v-164h299v-116h-299v-188h339v-116h-504v700h504v-116zM484 870l-86 -120h-148l-86 120h101l59 -60l59 60h101z" />
    <glyph glyph-name="ecaron" unicode="&#x11b;" 
d="M179 202q6 -62 32 -91t77 -29q43 0 65.5 17.5t32.5 56.5h140q-17 -87 -73 -126.5t-165 -39.5q-136 0 -197 61.5t-61 198.5t61 198.5t197 61.5t197 -62.5t61 -201.5v-44h-367zM289 418q-53 0 -79.5 -31.5t-31.5 -100.5h221q0 70 -26 101t-84 31zM447 700l-84 -150h-148
l-84 150h93l65 -82l65 82h93z" />
    <glyph glyph-name="Gbreve" unicode="&#x11e;" horiz-adv-x="776" 
d="M398 294v108h338v-52q0 -194 -80 -282t-258 -88q-188 0 -273 88t-85 282t85 282t273 88q147 0 225 -57t103 -183h-156q-15 61 -55.5 88t-116.5 27q-98 0 -141.5 -57.5t-43.5 -187.5q0 -129 44 -187t141 -58q96 0 139 44.5t43 144.5h-182zM564 870q0 -63 -39.5 -91.5
t-126.5 -28.5t-126.5 28.5t-39.5 91.5h108q0 -51 53 -52h5q31 0 44.5 12t13.5 40h108z" />
    <glyph glyph-name="gbreve" unicode="&#x11f;" horiz-adv-x="607" 
d="M249 -10q-115 0 -167 62t-52 198q0 137 51.5 198.5t166.5 61.5q112 0 164 -58l19 48h116v-450q0 -137 -61 -198.5t-197 -61.5q-112 0 -168 39.5t-70 126.5h140q8 -39 29.5 -56.5t60.5 -17.5q62 0 90 34t28 109v10q-51 -45 -150 -45zM288 98q58 0 84 36t26 116t-26 116
t-84 36t-84 -36t-26 -116t26 -116t84 -36zM460 700q0 -79 -39.5 -114.5t-126.5 -35.5t-126.5 35.5t-39.5 114.5h100q0 -39 15.5 -56.5t50.5 -17.5t50.5 17.5t15.5 56.5h100z" />
    <glyph glyph-name="Gdotaccent" unicode="&#x120;" horiz-adv-x="776" 
d="M398 294v108h338v-52q0 -194 -80 -282t-258 -88q-188 0 -273 88t-85 282t85 282t273 88q147 0 225 -57t103 -183h-156q-15 61 -55.5 88t-116.5 27q-98 0 -141.5 -57.5t-43.5 -187.5q0 -129 44 -187t141 -58q96 0 139 44.5t43 144.5h-182zM398 884q45 0 65.5 -16.5
t20.5 -53.5t-20.5 -53.5t-65.5 -16.5t-65.5 16.5t-20.5 53.5t20 53.5t66 16.5z" />
    <glyph glyph-name="gdotaccent" unicode="&#x121;" horiz-adv-x="607" 
d="M249 -10q-115 0 -167 62t-52 198q0 137 51.5 198.5t166.5 61.5q112 0 164 -58l19 48h116v-450q0 -137 -61 -198.5t-197 -61.5q-112 0 -168 39.5t-70 126.5h140q8 -39 29.5 -56.5t60.5 -17.5q62 0 90 34t28 109v10q-51 -45 -150 -45zM288 98q58 0 84 36t26 116t-26 116
t-84 36t-84 -36t-26 -116t26 -116t84 -36zM296 723q45 0 65.5 -19t20.5 -60t-20.5 -59.5t-65.5 -18.5t-65.5 18.5t-20.5 59.5t20.5 60t65.5 19z" />
    <glyph glyph-name="Gcedilla" unicode="&#x122;" horiz-adv-x="776" 
d="M398 294v108h338v-52q0 -194 -80 -282t-258 -88q-188 0 -273 88t-85 282t85 282t273 88q147 0 225 -57t103 -183h-156q-15 61 -55.5 88t-116.5 27q-98 0 -141.5 -57.5t-43.5 -187.5q0 -129 44 -187t141 -58q96 0 139 44.5t43 144.5h-182zM398 -42q37 0 49.5 -22t12.5 -62
q0 -59 -27 -85.5t-87 -26.5v52q46 0 46 44q-56 0 -56 45q0 55 62 55z" />
    <glyph glyph-name="gcedilla" unicode="&#x123;" horiz-adv-x="607" 
d="M249 -10q-115 0 -167 62t-52 198q0 137 51.5 198.5t166.5 61.5q112 0 164 -58l19 48h116v-450q0 -137 -61 -198.5t-197 -61.5q-112 0 -168 39.5t-70 126.5h140q8 -39 29.5 -56.5t60.5 -17.5q62 0 90 34t28 109v10q-51 -45 -150 -45zM288 98q58 0 84 36t26 116t-26 116
t-84 36t-84 -36t-26 -116t26 -116t84 -36zM284 552q-37 0 -49.5 22t-12.5 62q0 59 27 85.5t87 26.5v-52q-46 0 -46 -44q56 0 56 -45q0 -55 -62 -55z" />
    <glyph glyph-name="Itilde" unicode="&#x128;" horiz-adv-x="332" 
d="M84 700h165v-700h-165v700zM0 760q0 51 29 79.5t73 28.5q48 0 87.5 -25t56.5 -25q11 0 18.5 9t7.5 23h60q0 -51 -29 -79.5t-73 -28.5q-48 0 -87.5 25t-56.5 25q-11 0 -18.5 -9t-7.5 -23h-60z" />
    <glyph glyph-name="itilde" unicode="&#x129;" horiz-adv-x="252" 
d="M200 0h-148v500h148v-500zM-40 578q0 52 30 89t72 37q29 0 52.5 -12t35 -26.5t24.5 -27t24 -12.5t18.5 11t7.5 31h68q0 -52 -30 -89t-72 -37q-29 0 -52 12t-34.5 27t-25 27t-24.5 12t-18.5 -11t-7.5 -31h-68z" />
    <glyph glyph-name="Imacron" unicode="&#x12a;" horiz-adv-x="320" 
d="M78 700h165v-700h-165v700zM-10 838h340v-84h-340v84z" />
    <glyph glyph-name="imacron" unicode="&#x12b;" horiz-adv-x="240" 
d="M195 0h-149v500h149v-500zM-50 666h340v-84h-340v84z" />
    <glyph glyph-name="Iogonek" unicode="&#x12e;" horiz-adv-x="339" 
d="M223 0h-1q-47 -42 -51 -85q0 -39 40 -40q7 0 14 1.5t12.5 3.5t10 3.5l7.5 2.5l3 2v-118l-3 -2q-3 -2 -9.5 -5t-15 -6t-20 -5t-22.5 -2q-59 0 -88.5 43.5t-17 103.5t64.5 103h-59v700h165v-700h-30z" />
    <glyph glyph-name="iogonek" unicode="&#x12f;" horiz-adv-x="275" 
d="M183 0q-47 -42 -51 -85q0 -39 40 -40q11 0 22.5 3t17.5 6l6 4v-118q-30 -20 -70 -20q-59 0 -88.5 43.5t-17 103.5t64.5 103h-43v500h149v-500h-30zM138 722q46 0 66.5 -18.5t20.5 -59.5t-21 -59.5t-66 -18.5t-65.5 18.5t-20.5 59.5t20.5 59.5t65.5 18.5z" />
    <glyph glyph-name="Idotaccent" unicode="&#x130;" horiz-adv-x="332" 
d="M84 700h165v-700h-165v700zM166 884q45 0 65.5 -16.5t20.5 -53.5t-20.5 -53.5t-65.5 -16.5t-65.5 16.5t-20.5 53.5t20.5 53.5t65.5 16.5z" />
    <glyph glyph-name="dotlessi" unicode="&#x131;" horiz-adv-x="248" 
d="M198 0h-148v500h148v-500z" />
    <glyph glyph-name="IJ" unicode="&#x132;" horiz-adv-x="901" 
d="M80 700h165v-700h-165v700zM346 210v34h157v-34q0 -56 19.5 -80.5t62.5 -24.5t62 24.5t19 80.5v490h165v-490q0 -116 -58.5 -169t-187.5 -53q-125 0 -182 53t-57 169z" />
    <glyph glyph-name="ij" unicode="&#x133;" horiz-adv-x="555" 
d="M210 0h-148v500h148v-500zM283 -72q29 0 45 16.5t16 43.5v512h149v-528q0 -71 -40.5 -111.5t-113.5 -40.5h-135v108h79zM136 722q45 0 65.5 -18.5t20.5 -59.5t-20.5 -59.5t-65.5 -18.5t-65.5 18.5t-20.5 59.5t20.5 59.5t65.5 18.5zM419 722q45 0 65.5 -18.5t20.5 -59.5
t-20.5 -59.5t-66.5 -18.5q-45 0 -65.5 18.5t-20.5 59.5t20.5 59.5t66.5 18.5z" />
    <glyph glyph-name="Kcedilla" unicode="&#x136;" horiz-adv-x="711" 
d="M245 700v-272l237 272h199l-296 -340l316 -360h-199l-257 293v-293h-165v700h165zM346 -42q38 0 50 -22t12 -62q0 -59 -27 -85.5t-87 -26.5v52q46 0 46 44q-56 0 -56 45q0 55 62 55z" />
    <glyph glyph-name="kcedilla" unicode="&#x137;" horiz-adv-x="587" 
d="M209 700v-392l173 192h175l-216 -240l236 -260h-175l-193 213v-213h-149v700h149zM288 -42q38 0 50 -22t12 -62q0 -59 -27 -85.5t-87 -26.5v51q46 0 46 45q-56 0 -56 45q0 55 62 55z" />
    <glyph glyph-name="Lacute" unicode="&#x139;" horiz-adv-x="574" 
d="M544 125v-125h-464v700h165v-575h299zM100 750l95 120h142l-119 -120h-118z" />
    <glyph glyph-name="lacute" unicode="&#x13a;" horiz-adv-x="267" 
d="M60 0v700h149v-700h-149zM70 750l95 120h142l-119 -120h-118z" />
    <glyph glyph-name="Lcedilla" unicode="&#x13b;" horiz-adv-x="574" 
d="M544 125v-125h-464v700h165v-575h299zM312 -42q37 0 49.5 -22t12.5 -62q0 -59 -27 -85.5t-87 -26.5v52q46 0 46 44q-56 0 -56 45q0 55 62 55z" />
    <glyph glyph-name="lcedilla" unicode="&#x13c;" horiz-adv-x="269" 
d="M60 0v700h149v-700h-149zM134 -42q38 0 50 -22t12 -62q0 -59 -27 -85.5t-87 -26.5v52q46 0 46 44q-56 0 -56 45q0 55 62 55z" />
    <glyph glyph-name="Lcaron" unicode="&#x13d;" horiz-adv-x="574" 
d="M544 125v-125h-464v700h165v-575h299zM349 708q37 0 49.5 -22.5t12.5 -61.5q0 -59 -27 -85.5t-87 -26.5v52q24 0 34.5 10.5t10.5 33.5q-55 0 -55 45q0 30 15.5 42.5t46.5 12.5z" />
    <glyph glyph-name="lcaron" unicode="&#x13e;" horiz-adv-x="405" 
d="M60 0v700h148v-700h-148zM313 708q37 0 49.5 -23t12.5 -62q0 -58 -27.5 -85t-87.5 -27l1 52q45 0 45 45q-55 0 -55 44q0 29 17.5 42.5t44.5 13.5z" />
    <glyph glyph-name="Lslash" unicode="&#x141;" horiz-adv-x="616" 
d="M586 125v-125h-464v305l-92 -55v109l92 55v286h165v-188l193 115v-109l-193 -115v-278h299z" />
    <glyph glyph-name="lslash" unicode="&#x142;" horiz-adv-x="392" 
d="M30 271v109l92 54v266h148v-178l92 54v-109l-92 -54v-413h-148v325z" />
    <glyph glyph-name="Nacute" unicode="&#x143;" horiz-adv-x="772" 
d="M536 700h156v-700h-190l-265 495v-495h-157v700h191l265 -495v495zM316 750l95 120h142l-119 -120h-118z" />
    <glyph glyph-name="nacute" unicode="&#x144;" horiz-adv-x="586" 
d="M176 500l-1 -1l18 -39q49 50 147 50q103 0 149.5 -57t46.5 -183v-270h-148v270q0 70 -21 101t-67 31q-48 0 -70 -28.5t-22 -91.5v-282h-148v500h116zM324 700h149l-128 -150h-118z" />
    <glyph glyph-name="Ncedilla" unicode="&#x145;" horiz-adv-x="772" 
d="M536 700h156v-700h-190l-265 495v-495h-157v700h191l265 -495v495zM386 -42q38 0 50 -22t12 -62q0 -59 -27 -85.5t-87 -26.5v52q46 0 46 44q-56 0 -56 45q0 55 62 55z" />
    <glyph glyph-name="ncedilla" unicode="&#x146;" horiz-adv-x="586" 
d="M176 500l-1 -1l18 -39q49 50 147 50q103 0 149.5 -57t46.5 -183v-270h-148v270q0 70 -21 101t-67 31q-48 0 -70 -28.5t-22 -91.5v-282h-148v500h116zM297 -42q37 0 49.5 -22t12.5 -62q0 -59 -27 -85.5t-87 -26.5v52q46 0 46 44q-56 0 -56 45q0 55 62 55z" />
    <glyph glyph-name="Ncaron" unicode="&#x147;" horiz-adv-x="772" 
d="M536 700h156v-700h-190l-265 495v-495h-157v700h191l265 -495v495zM538 870l-86 -120h-148l-86 120h101l59 -60l59 60h101z" />
    <glyph glyph-name="ncaron" unicode="&#x148;" horiz-adv-x="586" 
d="M176 500l-1 -1l18 -39q49 50 147 50q103 0 149.5 -57t46.5 -183v-270h-148v270q0 70 -21 101t-67 31q-48 0 -70 -28.5t-22 -91.5v-282h-148v500h116zM371 550h-148l-84 150h93l65 -82l65 82h93z" />
    <glyph glyph-name="Omacron" unicode="&#x14c;" horiz-adv-x="796" 
d="M398 720q188 0 273 -88t85 -282t-85 -282t-273 -88t-273 88t-85 282t85 282t273 88zM398 595q-97 0 -141 -58t-44 -187t44 -187t141 -58q98 0 142 58t44 187t-44 187t-142 58zM228 842h340v-84h-340v84z" />
    <glyph glyph-name="omacron" unicode="&#x14d;" horiz-adv-x="596" 
d="M298 510q141 0 204.5 -61.5t63.5 -198.5t-63.5 -198.5t-204.5 -61.5t-204.5 61.5t-63.5 198.5t63.5 198.5t204.5 61.5zM178 250q0 -80 28.5 -116t91.5 -36t91.5 36t28.5 116t-28.5 116t-91.5 36t-91.5 -36t-28.5 -116zM128 642h340v-84h-340v84z" />
    <glyph glyph-name="Obreve" unicode="&#x14e;" horiz-adv-x="796" 
d="M398 720q188 0 273 -88t85 -282t-85 -282t-273 -88t-273 88t-85 282t85 282t273 88zM398 595q-97 0 -141 -58t-44 -187t44 -187t141 -58q98 0 142 58t44 187t-44 187t-142 58zM564 870q0 -63 -39.5 -91.5t-126.5 -28.5t-126.5 28.5t-39.5 91.5h108q0 -51 53 -52h5
q31 0 44.5 12t13.5 40h108z" />
    <glyph glyph-name="obreve" unicode="&#x14f;" horiz-adv-x="596" 
d="M298 510q141 0 204.5 -61.5t63.5 -198.5t-63.5 -198.5t-204.5 -61.5t-204.5 61.5t-63.5 198.5t63.5 198.5t204.5 61.5zM178 250q0 -80 28.5 -116t91.5 -36t91.5 36t28.5 116t-28.5 116t-91.5 36t-91.5 -36t-28.5 -116zM464 700q0 -79 -39.5 -114.5t-126.5 -35.5
t-126.5 35.5t-39.5 114.5h100q0 -38 14.5 -55.5t46.5 -18.5h5q35 0 50.5 17.5t15.5 56.5h100z" />
    <glyph glyph-name="Ohungarumlaut" unicode="&#x150;" horiz-adv-x="796" 
d="M398 720q188 0 273 -88t85 -282t-85 -282t-273 -88t-273 88t-85 282t85 282t273 88zM398 595q-97 0 -141 -58t-44 -187t44 -187t141 -58q98 0 142 58t44 187t-44 187t-142 58zM238 750l87 150h141l-119 -150h-109zM446 750l87 150h141l-118 -150h-110z" />
    <glyph glyph-name="ohungarumlaut" unicode="&#x151;" horiz-adv-x="604" 
d="M298 510q141 0 204.5 -61.5t63.5 -198.5t-63.5 -198.5t-204.5 -61.5t-204.5 61.5t-63.5 198.5t63.5 198.5t204.5 61.5zM178 250q0 -80 28.5 -116t91.5 -36t91.5 36t28.5 116t-28.5 116t-91.5 36t-91.5 -36t-28.5 -116zM138 550l87 150h141l-119 -150h-109zM346 550
l87 150h141l-118 -150h-110z" />
    <glyph glyph-name="OE" unicode="&#x152;" horiz-adv-x="1102" 
d="M1072 584l-1 1l-1 -1h-324v-164h284v-116h-284v-188h324v-116h-472v76q-33 -49 -88 -72t-145 -23q-170 1 -247.5 89t-77.5 281t77.5 280.5t248.5 87.5q169 0 234 -96v77h472v-116zM397 596q-97 0 -141 -58t-44 -187t44 -187t141 -58q98 0 142 58t44 187t-44 187t-142 58z
" />
    <glyph glyph-name="oe" unicode="&#x153;" horiz-adv-x="947" 
d="M550 202q11 -120 109 -120q78 0 97 74h141q-15 -76 -79 -121t-159 -45q-109 0 -171 60q-56 -60 -190 -60q-141 0 -204.5 61.5t-63.5 198.5t63.5 198.5t204.5 61.5q134 0 190 -60q62 60 171 60q120 0 189 -70t69 -194v-44h-367zM177 250q0 -80 28.5 -116t91.5 -36t91.5 36
t28.5 116t-28.5 116t-91.5 36t-91.5 -36t-28.5 -116zM660 418q-58 0 -82.5 -35t-28.5 -97h220q0 64 -28 98t-81 34z" />
    <glyph glyph-name="Racute" unicode="&#x154;" horiz-adv-x="722" 
d="M369 256h-124v-256h-165v700h320q136 0 202 -62.5t66 -163.5q0 -158 -143 -202l157 -272h-173zM245 364h147q56 0 84 29t28 81t-28 81t-84 29h-147v-220zM268 750l94 120h142l-118 -120h-118z" />
    <glyph glyph-name="racute" unicode="&#x155;" horiz-adv-x="416" 
d="M315 385h-1q-56 0 -81.5 -32t-25.5 -102v-250h-148v500h116l20 -47q46 56 120 56h72v-125h-72zM150 551l97 150h149l-128 -150h-118z" />
    <glyph glyph-name="Rcedilla" unicode="&#x156;" horiz-adv-x="722" 
d="M369 256h-124v-256h-165v700h320q136 0 202 -62.5t66 -163.5q0 -158 -143 -202l157 -272h-173zM245 364h147q56 0 84 29t28 81t-28 81t-84 29h-147v-220zM360 -42q38 0 50 -22t12 -62q0 -59 -27 -85.5t-87 -26.5v52q46 0 46 44q-56 0 -56 45q0 55 62 55z" />
    <glyph glyph-name="rcedilla" unicode="&#x157;" horiz-adv-x="407" 
d="M315 385h-1q-56 0 -81.5 -32t-25.5 -102v-250h-148v500h116l20 -47q46 56 120 56h72v-125h-72zM132 -41q38 0 50 -22t12 -62q0 -59 -27 -85.5t-87 -26.5v52q46 0 46 44q-56 0 -56 45q0 55 62 55z" />
    <glyph glyph-name="Rcaron" unicode="&#x158;" horiz-adv-x="722" 
d="M362 255h-117v-255h-165v700h320q135 0 201.5 -64.5t66.5 -161.5q0 -74 -36.5 -127t-112.5 -76l163 -271h-173zM245 364h155q55 0 79.5 31t24.5 79q0 110 -104 110h-155v-220zM490 870l-86 -120h-148l-86 120h101l59 -60l59 60h101z" />
    <glyph glyph-name="rcaron" unicode="&#x159;" horiz-adv-x="407" 
d="M315 385h-1q-56 0 -81.5 -32t-25.5 -102v-250h-148v500h116l20 -47q46 56 120 56h72v-125h-72zM380 701l-83 -150h-149l-84 150h93l65 -82l65 82h93z" />
    <glyph glyph-name="Sacute" unicode="&#x15a;" horiz-adv-x="656" 
d="M206 520q0 -31 30.5 -51.5t76 -30.5t98.5 -26t98.5 -36.5t76 -64.5t30.5 -107q0 -118 -68.5 -171t-219.5 -53t-219.5 52t-68.5 168h148q0 -59 33 -85.5t107 -26.5q70 0 101 22t31 70q0 32 -22.5 54.5t-59 35t-80 23t-87 25t-80 34.5t-59 56.5t-22.5 87.5q0 118 66 171
t212 53t212 -52t66 -168h-148q0 59 -31 85.5t-99 26.5q-65 0 -93.5 -21.5t-28.5 -70.5zM258 750l94 120h142l-118 -120h-118z" />
    <glyph glyph-name="sacute" unicode="&#x15b;" horiz-adv-x="508" 
d="M172 372q0 -23 22.5 -36.5t56.5 -19t74 -15.5t74 -23.5t56.5 -45t22.5 -78.5q0 -86 -55.5 -125t-177.5 -39q-113 0 -164 38t-51 122h140q0 -40 19 -58t61 -18t61 15t19 49q0 29 -30.5 44.5t-74.5 23t-88 19t-74.5 44t-30.5 87.5q0 81 51.5 117.5t166.5 36.5
q110 0 160 -35.5t50 -114.5h-132q0 35 -18.5 50.5t-59.5 15.5t-59.5 -12.5t-18.5 -41.5zM180 550l97 150h149l-128 -150h-118z" />
    <glyph glyph-name="Scircumflex" unicode="&#x15c;" horiz-adv-x="656" 
d="M206 520q0 -31 30.5 -51.5t76 -30.5t98.5 -26t98.5 -36.5t76 -64.5t30.5 -107q0 -118 -68.5 -171t-219.5 -53t-219.5 52t-68.5 168h148q0 -59 33 -85.5t107 -26.5q70 0 101 22t31 70q0 32 -22.5 54.5t-59 35t-80 23t-87 25t-80 34.5t-59 56.5t-22.5 87.5q0 118 66 171
t212 53t212 -52t66 -168h-148q0 59 -31 85.5t-99 26.5q-65 0 -93.5 -21.5t-28.5 -70.5zM488 750h-101l-59 60l-59 -60h-101l86 120h148z" />
    <glyph glyph-name="scircumflex" unicode="&#x15d;" horiz-adv-x="508" 
d="M172 372q0 -23 22.5 -36.5t56.5 -19t74 -15.5t74 -23.5t56.5 -45t22.5 -78.5q0 -86 -55.5 -125t-177.5 -39q-113 0 -164 38t-51 122h140q0 -40 19 -58t61 -18t61 15t19 49q0 29 -30.5 44.5t-74.5 23t-88 19t-74.5 44t-30.5 87.5q0 81 51.5 117.5t166.5 36.5
q110 0 160 -35.5t50 -114.5h-132q0 35 -18.5 50.5t-59.5 15.5t-59.5 -12.5t-18.5 -41.5zM408 550h-93l-65 82l-65 -82h-93l84 150h148z" />
    <glyph glyph-name="Scedilla" unicode="&#x15e;" horiz-adv-x="656" 
d="M279 -19v1q-125 7 -182 59.5t-57 158.5h148q0 -59 33 -85.5t107 -26.5q70 0 101 22t31 70q0 32 -22.5 54.5t-59 35t-80 23t-87 25t-80 34.5t-59 56.5t-22.5 87.5q0 118 66 171t212 53t212 -52t66 -168h-148q0 59 -31 85.5t-99 26.5q-65 0 -93.5 -21.5t-28.5 -70.5
q0 -31 30.5 -51.5t76 -30.5t98.5 -26t98.5 -36.5t76 -64.5t30.5 -107q0 -112 -61.5 -165.5t-197.5 -57.5l-8 -31l10 -2.5t22.5 -8.5t29 -16t22.5 -26t10 -37q0 -52 -54.5 -81t-151.5 -29v60q98 0 98 50q0 19 -23.5 28.5t-56.5 9.5z" />
    <glyph glyph-name="scedilla" unicode="&#x15f;" horiz-adv-x="508" 
d="M205 -9l-1 1q-91 6 -132.5 44t-41.5 114h140q0 -40 19 -58t61 -18t61 15t19 49q0 29 -30.5 44.5t-74.5 23t-88 19t-74.5 44t-30.5 87.5q0 81 51.5 117.5t166.5 36.5q110 0 160 -35.5t50 -114.5h-132q0 35 -18.5 50.5t-59.5 15.5t-59.5 -12.5t-18.5 -41.5
q0 -23 22.5 -36.5t56.5 -19t74 -15.5t74 -23.5t56.5 -45t22.5 -78.5q0 -80 -46.5 -119t-148.5 -44l-10 -41l10 -2.5t22.5 -8.5t29 -16t22.5 -26t10 -37q0 -52 -54.5 -81t-151.5 -29v60q98 0 98 50q0 19 -23.5 28.5t-56.5 9.5z" />
    <glyph glyph-name="Scaron" unicode="&#x160;" horiz-adv-x="656" 
d="M206 520q0 -31 30.5 -51.5t76 -30.5t98.5 -26t98.5 -36.5t76 -64.5t30.5 -107q0 -118 -68.5 -171t-219.5 -53t-219.5 52t-68.5 168h148q0 -59 33 -85.5t107 -26.5q70 0 101 22t31 70q0 32 -22.5 54.5t-59 35t-80 23t-87 25t-80 34.5t-59 56.5t-22.5 87.5q0 118 66 171
t212 53t212 -52t66 -168h-148q0 59 -31 85.5t-99 26.5q-65 0 -93.5 -21.5t-28.5 -70.5zM480 870l-86 -120h-148l-86 120h101l59 -60l59 60h101z" />
    <glyph glyph-name="scaron" unicode="&#x161;" horiz-adv-x="508" 
d="M172 372q0 -23 22.5 -36.5t56.5 -19t74 -15.5t74 -23.5t56.5 -45t22.5 -78.5q0 -86 -55.5 -125t-177.5 -39q-113 0 -164 38t-51 122h140q0 -40 19 -58t61 -18t61 15t19 49q0 29 -30.5 44.5t-74.5 23t-88 19t-74.5 44t-30.5 87.5q0 81 51.5 117.5t166.5 36.5
q110 0 160 -35.5t50 -114.5h-132q0 35 -18.5 50.5t-59.5 15.5t-59.5 -12.5t-18.5 -41.5zM408 700l-84 -150h-148l-84 150h93l65 -82l65 82h93z" />
    <glyph glyph-name="Tcedilla" unicode="&#x162;" horiz-adv-x="636" 
d="M275 0h-39v575h-206v125h576v-125h-206v-575h-47l-13 -50l10 -2.5t22.5 -8.5t29 -16t22.5 -26t10 -37q0 -52 -54.5 -81t-151.5 -29v60q98 0 98 50q0 19 -23.5 28.5t-56.5 9.5z" />
    <glyph glyph-name="tcedilla" unicode="&#x163;" horiz-adv-x="442" 
d="M225 5q-50 13 -77.5 51t-27.5 96v256h-80v92h80v126h149v-126h143v-92h-143v-240q0 -27 16 -43.5t45 -16.5h82v-108h-111l-13 -50l10 -2.5t22.5 -8.5t29 -16t22.5 -26t10 -37q0 -52 -54.5 -81t-151.5 -29v60q98 0 98 50q0 19 -23.5 28.5t-56.5 9.5z" />
    <glyph glyph-name="Tcaron" unicode="&#x164;" horiz-adv-x="636" 
d="M606 700v-125h-206v-575h-164v575h-206v125h576zM470 870l-86 -120h-148l-86 120h101l59 -60l59 60h101z" />
    <glyph glyph-name="tcaron" unicode="&#x165;" horiz-adv-x="457" 
d="M269 168q0 -27 16 -43.5t45 -16.5h82v-108h-138q-73 0 -113.5 40.5t-40.5 111.5v256h-80v92h80v126h149v-126h143v-92h-143v-240zM365 722q37 0 49.5 -22.5t12.5 -61.5q0 -60 -27.5 -87t-86.5 -27v52q24 0 34.5 10.5t10.5 35.5q-55 0 -55 45q0 30 15.5 42.5t46.5 12.5z
" />
    <glyph glyph-name="Utilde" unicode="&#x168;" horiz-adv-x="736" 
d="M70 258v442h165v-442q0 -81 31.5 -117t101.5 -36q71 0 102.5 36t31.5 117v442h164v-442q0 -146 -70.5 -212t-227.5 -66t-227.5 66t-70.5 212zM202 760q0 51 29 79.5t73 28.5q48 0 87.5 -25t56.5 -25q11 0 18.5 9t7.5 23h60q0 -51 -29 -79.5t-73 -28.5q-48 0 -87.5 25
t-56.5 25q-11 0 -18.5 -9t-7.5 -23h-60z" />
    <glyph glyph-name="utilde" unicode="&#x169;" horiz-adv-x="586" 
d="M410 0l1 1l-18 39q-49 -50 -147 -50q-103 0 -149.5 57t-46.5 183v270h148v-270q0 -70 21 -101t67 -31q92 0 92 120l1 282h147v-500h-116zM123 600q0 52 30 89t72 37q29 0 52.5 -12t35 -26.5t24.5 -27t24 -12.5t18.5 11t7.5 31h68q0 -52 -30 -89t-72 -37q-29 0 -52 12
t-34.5 27t-25 27t-24.5 12t-18.5 -11t-7.5 -31h-68z" />
    <glyph glyph-name="Umacron" unicode="&#x16a;" horiz-adv-x="736" 
d="M70 258v442h165v-442q0 -81 31.5 -117t101.5 -36q71 0 102.5 36t31.5 117v442h164v-442q0 -146 -70.5 -212t-227.5 -66t-227.5 66t-70.5 212zM198 840h340v-84h-340v84z" />
    <glyph glyph-name="umacron" unicode="&#x16b;" horiz-adv-x="586" 
d="M410 0l1 1l-18 39q-49 -50 -147 -50q-103 0 -149.5 57t-46.5 183v270h148v-270q0 -70 21 -101t67 -31q92 0 92 120l1 282h147v-500h-116zM119 582v84h340v-84h-340z" />
    <glyph glyph-name="Ubreve" unicode="&#x16c;" horiz-adv-x="736" 
d="M70 258v442h165v-442q0 -81 31.5 -117t101.5 -36q71 0 102.5 36t31.5 117v442h164v-442q0 -146 -70.5 -212t-227.5 -66t-227.5 66t-70.5 212zM534 870q0 -63 -39.5 -91.5t-126.5 -28.5t-126.5 28.5t-39.5 91.5h108q0 -51 53 -52h5q31 0 44.5 12t13.5 40h108z" />
    <glyph glyph-name="ubreve" unicode="&#x16d;" horiz-adv-x="586" 
d="M410 0l1 1l-18 39q-49 -50 -147 -50q-103 0 -149.5 57t-46.5 183v270h148v-270q0 -70 21 -101t67 -31q92 0 92 120l1 282h147v-500h-116zM345 700h100q0 -79 -39.5 -114.5t-126.5 -35.5t-126.5 35.5t-39.5 114.5h100q0 -39 15.5 -56.5t50.5 -17.5t50.5 17.5t15.5 56.5z
" />
    <glyph glyph-name="Uring" unicode="&#x16e;" horiz-adv-x="736" 
d="M70 258v442h165v-442q0 -81 31.5 -117t101.5 -36q71 0 102.5 36t31.5 117v442h164v-442q0 -146 -70.5 -212t-227.5 -66t-227.5 66t-70.5 212zM368 902q65 0 94.5 -25t29.5 -81t-29.5 -81t-94.5 -25t-94.5 25t-29.5 81t29.5 81t94.5 25zM368 750q26 0 37 10.5t11 35.5
t-11 35.5t-37 10.5t-37 -10.5t-11 -35.5q0 -46 48 -46z" />
    <glyph glyph-name="uring" unicode="&#x16f;" horiz-adv-x="586" 
d="M410 0l1 1l-18 39q-49 -50 -147 -50q-103 0 -149.5 57t-46.5 183v270h148v-270q0 -70 21 -101t67 -31q92 0 92 120l1 282h147v-500h-116zM271 746q65 0 94.5 -25t29.5 -81t-29.5 -81t-94.5 -25t-94.5 25t-29.5 81t29.5 81t94.5 25zM271 594q26 0 37 10.5t11 35.5
t-11 35.5t-37 10.5t-37 -10.5t-11 -35.5t11 -35.5t37 -10.5z" />
    <glyph glyph-name="Uhungarumlaut" unicode="&#x170;" horiz-adv-x="736" 
d="M70 258v442h165v-442q0 -81 31.5 -117t101.5 -36q71 0 102.5 36t31.5 117v442h164v-442q0 -146 -70.5 -212t-227.5 -66t-227.5 66t-70.5 212zM208 750l87 150h141l-119 -150h-109zM416 750l87 150h141l-118 -150h-110z" />
    <glyph glyph-name="uhungarumlaut" unicode="&#x171;" horiz-adv-x="607" 
d="M410 0l1 1l-18 39q-49 -50 -147 -50q-103 0 -149.5 57t-46.5 183v270h148v-270q0 -70 21 -101t67 -31q92 0 92 120l1 282h147v-500h-116zM198 700h141l-119 -150h-109zM406 700h141l-118 -150h-110z" />
    <glyph glyph-name="Uogonek" unicode="&#x172;" horiz-adv-x="736" 
d="M666 257q0 -111 -40.5 -175t-126.5 -88q-26 -25 -38 -53t-4 -47.5t37 -19.5q11 0 22.5 3t17.5 7l6 3v-118q-30 -20 -70 -20q-55 0 -84.5 38.5t-23 93t46.5 99.5q-13 -1 -41 -1q-157 0 -227.5 66t-70.5 212v442h165v-442q0 -81 31.5 -117t101.5 -36q71 0 102.5 36
t31.5 117v442h164v-442z" />
    <glyph glyph-name="uogonek" unicode="&#x173;" horiz-adv-x="586" 
d="M409 1v1l-17 38q-49 -50 -147 -50q-103 0 -149.5 57t-46.5 183v270h148v-270q0 -70 20.5 -101t67.5 -31q92 0 92 120l1 282h147v-500h-42q-47 -42 -51 -85q0 -39 40 -40q11 0 22.5 3t17.5 6l6 4v-118q-30 -20 -70 -20q-59 0 -88.5 43.5t-16.5 104t66 103.5z" />
    <glyph glyph-name="Wcircumflex" unicode="&#x174;" horiz-adv-x="1012" 
d="M407 700h197h1l103 -542l119 542h165l-171 -700h-214l-107 540l-95 -540h-214l-171 700h165l119 -542zM662 750h-101l-59 60l-59 -60h-101l86 120h148z" />
    <glyph glyph-name="wcircumflex" unicode="&#x175;" horiz-adv-x="864" 
d="M697 0h-182l-83 396l-83 -396h-181l-148 500h149l96 -382l80 382h182l73 -381l96 381h148zM584 550h-93l-65 82l-65 -82h-93l84 150h148z" />
    <glyph glyph-name="Ycircumflex" unicode="&#x176;" horiz-adv-x="664" 
d="M414 268v-268h-156v268l-248 432h181l145 -279l145 279h173zM498 750h-101l-59 60l-58 -60h-102l86 120h149z" />
    <glyph glyph-name="ycircumflex" unicode="&#x177;" horiz-adv-x="536" 
d="M222 2h-1l4 11l-216 487h141l131 -316l104 316h140l-168 -482q-38 -104 -88 -151t-122 -47h-72v92h64q28 0 47.5 21.5t35.5 68.5zM434 550h-93l-65 82l-65 -82h-93l84 150h149z" />
    <glyph glyph-name="Ydieresis" unicode="&#x178;" horiz-adv-x="664" 
d="M414 268v-268h-156v268l-248 432h181l145 -279l145 279h173zM220 874q45 0 65.5 -16.5t20.5 -53.5t-20.5 -53.5t-65.5 -16.5t-65.5 16.5t-20.5 53.5t20 53.5t66 16.5zM456 874q46 0 66.5 -16.5t20.5 -53.5t-20.5 -53.5t-66.5 -16.5q-45 0 -65.5 16.5t-20.5 53.5
t20.5 53.5t65.5 16.5z" />
    <glyph glyph-name="Zacute" unicode="&#x179;" horiz-adv-x="624" 
d="M221 116h373v-116h-564v99l363 485h-353v116h544v-99zM234 750l94 120h142l-119 -120h-117z" />
    <glyph glyph-name="zacute" unicode="&#x17a;" horiz-adv-x="504" 
d="M205 100h269v-100h-444v83l260 317h-250v100h424v-83zM182 550l97 150h149l-128 -150h-118z" />
    <glyph glyph-name="Zdotaccent" unicode="&#x17b;" horiz-adv-x="624" 
d="M221 116h373v-116h-564v99l363 485h-353v116h544v-99zM312 884q45 0 65.5 -16.5t20.5 -53.5t-20.5 -53.5t-65.5 -16.5q-46 0 -66 16.5t-20 53.5t20 53.5t66 16.5z" />
    <glyph glyph-name="zdotaccent" unicode="&#x17c;" horiz-adv-x="504" 
d="M205 100h269v-100h-444v83l260 317h-250v100h424v-83zM252 726q45 0 65.5 -18.5t20.5 -59.5t-20.5 -59.5t-65.5 -18.5t-65.5 18.5t-20.5 59.5t20.5 59.5t65.5 18.5z" />
    <glyph glyph-name="Zcaron" unicode="&#x17d;" horiz-adv-x="624" 
d="M221 116h373v-116h-564v99l363 485h-353v116h544v-99zM464 870l-86 -120h-148l-86 120h101l59 -60l58 60h102z" />
    <glyph glyph-name="zcaron" unicode="&#x17e;" horiz-adv-x="504" 
d="M205 100h269v-100h-444v83l260 317h-250v100h424v-83zM410 700l-84 -150h-148l-84 150h93l65 -82l65 82h93z" />
    <glyph glyph-name="Aacutering" unicode="&#x1fa;" horiz-adv-x="692" 
d="M10 0l230 700h72h68h89l213 -700h-173l-41 144h-251l-42 -144h-165zM248 252h1h189l-93 330zM472 960l1 -1l-63 -64q60 -21 60 -79q0 -43 -33 -65.5t-91 -22.5t-91 22.5t-33 65.5q0 41 31 63.5t85 24.5l40 56h94zM347 779q56 0 56 36t-56 36t-56 -36t56 -36z" />
    <glyph glyph-name="aacutering" unicode="&#x1fb;" horiz-adv-x="556" 
d="M373 42q-46 -52 -155 -52q-99 0 -143.5 37.5t-44.5 120.5q0 89 57.5 129.5t184.5 40.5h86v22q0 45 -20 65.5t-64 20.5t-64 -18t-19 -58h-141q0 84 54 122t174 38q119 0 173.5 -44.5t54.5 -141.5v-324h-116zM358 234h-65q-26 0 -43 -2.5t-35.5 -9.5t-27.5 -23.5t-9 -42.5
q0 -36 18.5 -51t61.5 -15q57 0 78.5 30t21.5 89v25zM342 784h109l-88 -78q39 -27 39 -76q0 -46 -33 -72t-91 -26t-91 26t-33 72t33 72t91 26h13zM278 592q26 0 37 9t11 29t-11 29t-37 9t-37 -9t-11 -29t11 -29t37 -9z" />
    <glyph glyph-name="AEacute" unicode="&#x1fc;" horiz-adv-x="942" 
d="M912 584h-305v-164h265v-116h-265v-188h305v-116h-454v144h-214l-69 -144h-165l350 700h552v-116zM458 587l-161 -335h161v335zM474 750l94 120h142l-118 -120h-118z" />
    <glyph glyph-name="aeacute" unicode="&#x1fd;" horiz-adv-x="924" 
d="M507 202q6 -62 32 -91t78 -29q79 0 97 74h141q-17 -87 -73 -126.5t-165 -39.5q-151 0 -196 111q-37 -111 -203 -111q-99 0 -143.5 37.5t-44.5 120.5q0 85 51.5 125.5t165.5 44.5h111v22q0 41 -20.5 59.5t-67.5 18.5q-43 0 -61.5 -16t-17.5 -52h-141q0 84 54 122t174 38
q124 0 168 -67q51 67 170 67q136 0 197 -62.5t61 -201.5v-44h-367zM358 234h-70q-58 0 -84 -18.5t-26 -59.5q0 -35 20.5 -50.5t66.5 -15.5q49 0 71 25t22 81v38zM617 418q-53 0 -79.5 -31.5t-31.5 -100.5h220q1 70 -25 101t-84 31zM379 550l97 150h149l-128 -150h-118z" />
    <glyph glyph-name="Oslashacute" unicode="&#x1fe;" horiz-adv-x="795" 
d="M482 714l23 64h98l-30 -86q94 -34 138 -118t44 -225q0 -194 -85 -282t-273 -88q-38 0 -71 3l-22 -63h-100l29 82q-100 33 -146.5 117.5t-46.5 230.5q0 194 85 282t273 88q41 0 84 -5zM440 591q-19 3 -40 3q-97 0 -141 -58t-44 -187q0 -157 67 -211zM370 106q9 -1 29 -1
q98 0 142 58t44 187q0 147 -59 203zM303 750l94 120h142l-118 -120h-118z" />
    <glyph glyph-name="oslashacute" unicode="&#x1ff;" horiz-adv-x="595" 
d="M298 510q28 0 54 -3l21 62h68l-26 -74q78 -22 114 -82t36 -164q0 -136 -63.5 -197.5t-204.5 -61.5q-37 0 -54 2l-21 -62h-68l26 74q-78 22 -114 82t-36 164q0 137 63.5 198.5t204.5 61.5zM178 250q0 -97 42 -130l96 281q-6 1 -18 1q-63 0 -91.5 -36t-28.5 -116zM376 379
l-96 -280q6 -1 18 -1q63 0 91.5 36t28.5 116q0 96 -42 129zM196 550l97 150h149l-128 -150h-118z" />
    <glyph glyph-name="Scommaaccent" unicode="&#x218;" horiz-adv-x="656" 
d="M206 520q0 -31 30.5 -51.5t76 -30.5t98.5 -26t98.5 -36.5t76 -64.5t30.5 -107q0 -118 -68.5 -171t-219.5 -53t-219.5 52t-68.5 168h148q0 -59 33 -85.5t107 -26.5q70 0 101 22t31 70q0 32 -22.5 54.5t-59 35t-80 23t-87 25t-80 34.5t-59 56.5t-22.5 87.5q0 118 66 171
t212 53t212 -52t66 -168h-148q0 59 -31 85.5t-99 26.5q-65 0 -93.5 -21.5t-28.5 -70.5zM328 -42q37 0 49.5 -22t12.5 -62q0 -59 -27 -85.5t-87 -26.5v52q46 0 46 44q-56 0 -56 45q0 55 62 55z" />
    <glyph glyph-name="scommaaccent" unicode="&#x219;" horiz-adv-x="508" 
d="M172 372q0 -23 22.5 -36.5t56.5 -19t74 -15.5t74 -23.5t56.5 -45t22.5 -78.5q0 -86 -55.5 -125t-177.5 -39q-113 0 -164 38t-51 122h140q0 -40 19 -58t61 -18t61 15t19 49q0 29 -30.5 44.5t-74.5 23t-88 19t-74.5 44t-30.5 87.5q0 81 51.5 117.5t166.5 36.5
q110 0 160 -35.5t50 -114.5h-132q0 35 -18.5 50.5t-59.5 15.5t-59.5 -12.5t-18.5 -41.5zM250 -42q37 0 49.5 -22t12.5 -62q0 -59 -27 -85.5t-87 -26.5v52q46 0 46 44q-56 0 -56 45q0 55 62 55z" />
    <glyph glyph-name="uni021A" unicode="&#x21a;" horiz-adv-x="636" 
d="M606 700v-125h-206v-575h-164v575h-206v125h576zM318 -42q37 0 49.5 -22t12.5 -62q0 -59 -27 -85.5t-87 -26.5v52q46 0 46 44q-56 0 -56 45q0 55 62 55z" />
    <glyph glyph-name="uni021B" unicode="&#x21b;" horiz-adv-x="442" 
d="M269 168q0 -27 16 -43.5t45 -16.5h82v-108h-138q-73 0 -113.5 40.5t-40.5 111.5v256h-80v92h80v126h149v-126h143v-92h-143v-240zM250 -42q37 0 49.5 -22t12.5 -62q0 -59 -27 -85.5t-87 -26.5v52q46 0 46 44q-56 0 -56 45q0 55 62 55z" />
    <glyph glyph-name="circumflex" unicode="&#x2c6;" horiz-adv-x="376" 
d="M262 700l84 -150h-93l-65 82l-65 -82h-93l84 150h148z" />
    <glyph glyph-name="caron" unicode="&#x2c7;" horiz-adv-x="376" 
d="M346 700l-84 -150h-148l-84 150h93l65 -82l65 82h93z" />
    <glyph glyph-name="breve" unicode="&#x2d8;" horiz-adv-x="392" 
d="M262 700h100q0 -79 -39.5 -114.5t-126.5 -35.5t-126.5 35.5t-39.5 114.5h100q0 -39 15.5 -56.5t50.5 -17.5t50.5 17.5t15.5 56.5z" />
    <glyph glyph-name="dotaccent" unicode="&#x2d9;" horiz-adv-x="232" 
d="M116 740q45 0 65.5 -18.5t20.5 -59.5t-20.5 -59.5t-65.5 -18.5t-65.5 18.5t-20.5 59.5t20.5 59.5t65.5 18.5z" />
    <glyph glyph-name="ring" unicode="&#x2da;" horiz-adv-x="308" 
d="M154 726q65 0 94.5 -25t29.5 -81t-29.5 -81t-94.5 -25t-94.5 25t-29.5 81t29.5 81t94.5 25zM154 574q26 0 37 10.5t11 35.5t-11 35.5t-37 10.5t-37 -10.5t-11 -35.5t11 -35.5t37 -10.5z" />
    <glyph glyph-name="ogonek" unicode="&#x2db;" horiz-adv-x="238" 
d="M118 16h76q-54 -35 -68 -85q-13 -45 21 -54q6 -2 15 -2q11 0 22.5 3t17.5 6l6 4v-118q-30 -20 -70 -20q-47 0 -76 29.5t-33 71t19 88t70 77.5z" />
    <glyph glyph-name="tilde" unicode="&#x2dc;" horiz-adv-x="392" 
d="M30 600q0 52 30 89t72 37q29 0 52 -12t34.5 -26.5t25 -27t24.5 -12.5t18.5 11t7.5 31h68q0 -52 -30 -89t-72 -37q-29 0 -52.5 12t-35 27t-24.5 27t-24 12t-18.5 -11t-7.5 -31h-68z" />
    <glyph glyph-name="hungarumlaut" unicode="&#x2dd;" horiz-adv-x="497" 
d="M30 550l87 150h141l-119 -150h-109zM238 550l87 150h142l-119 -150h-110z" />
    <glyph glyph-name="Wgrave" unicode="&#x1e80;" horiz-adv-x="1012" 
d="M407 700h197h1l103 -542l119 542h165l-171 -700h-214l-107 540l-95 -540h-214l-171 700h165l119 -542zM572 750h-110l-126 120h134z" />
    <glyph glyph-name="wgrave" unicode="&#x1e81;" horiz-adv-x="864" 
d="M697 0h-182l-83 396l-83 -396h-181l-148 500h149l96 -382l80 382h182l73 -381l96 381h148zM496 550h-117l-129 150h150z" />
    <glyph glyph-name="Wacute" unicode="&#x1e82;" horiz-adv-x="1012" 
d="M407 700h197h1l103 -542l119 542h165l-171 -700h-214l-107 540l-95 -540h-214l-171 700h165l119 -542zM432 750l94 120h142l-118 -120h-118z" />
    <glyph glyph-name="wacute" unicode="&#x1e83;" horiz-adv-x="864" 
d="M697 0h-182l-83 396l-83 -396h-181l-148 500h149l96 -382l80 382h182l73 -381l96 381h148zM348 550l97 150h150l-129 -150h-118z" />
    <glyph glyph-name="Wdieresis" unicode="&#x1e84;" horiz-adv-x="1012" 
d="M407 700h197h1l103 -542l119 542h165l-171 -700h-214l-107 540l-95 -540h-214l-171 700h165l119 -542zM384 874q45 0 65.5 -16.5t20.5 -53.5t-20.5 -53.5t-66.5 -16.5q-45 0 -65.5 16.5t-20.5 53.5t20.5 53.5t66.5 16.5zM620 874q45 0 66 -16.5t21 -53.5t-21 -53.5
t-66 -16.5t-65.5 16.5t-20.5 53.5t20.5 53.5t65.5 16.5z" />
    <glyph glyph-name="wdieresis" unicode="&#x1e85;" horiz-adv-x="864" 
d="M697 0h-182l-83 396l-83 -396h-181l-148 500h149l96 -382l80 382h182l73 -381l96 381h148zM314 728q45 0 65.5 -19.5t20.5 -62.5t-20.5 -62.5t-65.5 -19.5q-46 0 -66 19t-20 63q0 43 20.5 62.5t65.5 19.5zM534 728q46 0 66.5 -19.5t20.5 -62.5t-20.5 -62.5t-66.5 -19.5
q-45 0 -65.5 19.5t-20.5 62.5t20.5 62.5t65.5 19.5z" />
    <glyph glyph-name="uni1E9E" unicode="&#x1e9e;" horiz-adv-x="665" 
d="M334 720q57 0 99.5 -7.5t81 -27t59 -58.5t20.5 -97q0 -54 -26 -86t-83 -51q74 -20 107 -64t33 -121q0 -109 -50.5 -158.5t-160.5 -49.5q-25 0 -52 5t-42 10l-14 5v100q36 -12 68 -12q53 0 77.5 26t24.5 82q0 118 -150 118v102q68 0 98 19.5t30 64.5q0 48 -26.5 70
t-85.5 22q-65 0 -94.5 -32t-29.5 -96v-484h-148v472q0 128 66.5 188t197.5 60z" />
    <glyph glyph-name="Ygrave" unicode="&#x1ef2;" horiz-adv-x="664" 
d="M414 268v-268h-156v268l-248 432h181l145 -279l145 279h173zM408 750h-109l-127 120h134z" />
    <glyph glyph-name="ygrave" unicode="&#x1ef3;" horiz-adv-x="536" 
d="M222 2h-1l4 11l-216 487h141l131 -316l104 316h140l-168 -482q-38 -104 -88 -151t-122 -47h-72v92h64q28 0 47.5 21.5t35.5 68.5zM346 550h-117l-129 150h150z" />
    <glyph glyph-name="endash" unicode="&#x2013;" horiz-adv-x="580" 
d="M550 320v-108h-520v108h520z" />
    <glyph glyph-name="emdash" unicode="&#x2014;" horiz-adv-x="800" 
d="M770 320v-108h-740v108h740z" />
    <glyph glyph-name="quoteleft" unicode="&#x2018;" horiz-adv-x="232" 
d="M124 373q-57 0 -75.5 35.5t-18.5 97.5q0 102 38.5 148t123.5 46v-68q-37 0 -53.5 -22t-15.5 -72q41 0 60 -19.5t19 -61.5q0 -43 -17.5 -63.5t-60.5 -20.5z" />
    <glyph glyph-name="quoteright" unicode="&#x2019;" horiz-adv-x="232" 
d="M108 710q57 0 75.5 -35.5t18.5 -97.5q0 -101 -38.5 -147.5t-123.5 -46.5v68q37 0 53.5 22.5t15.5 72.5q-41 0 -60 19t-19 61q0 43 17.5 63.5t60.5 20.5z" />
    <glyph glyph-name="quotesinglbase" unicode="&#x201a;" horiz-adv-x="232" 
d="M108 155q57 0 75.5 -35.5t18.5 -97.5q0 -102 -38.5 -148t-123.5 -46v67q37 0 53.5 22.5t15.5 72.5q-41 0 -60 19t-19 62q0 42 18 63t60 21z" />
    <glyph glyph-name="quotedblleft" unicode="&#x201c;" horiz-adv-x="463" 
d="M124 373q-57 0 -75.5 35.5t-18.5 97.5q0 102 38.5 148t123.5 46v-68q-37 0 -53.5 -22t-15.5 -72q41 0 60 -19.5t19 -61.5q0 -43 -17.5 -63.5t-60.5 -20.5zM355 373q-57 0 -75.5 35.5t-18.5 97.5q0 102 38.5 148t123.5 46l-1 -68q-37 0 -53 -22t-16 -72q41 0 60.5 -19.5
t19.5 -61.5t-17.5 -63t-60.5 -21z" />
    <glyph glyph-name="quotedblright" unicode="&#x201d;" horiz-adv-x="463" 
d="M108 710q57 0 75.5 -35.5t18.5 -97.5q0 -101 -38.5 -147.5t-123.5 -46.5v68q37 0 53.5 22.5t15.5 72.5q-41 0 -59.5 19t-19.5 61q0 43 17.5 63.5t60.5 20.5zM338 710q30 0 50 -10.5t29 -31.5t12.5 -41.5t3.5 -49.5q0 -101 -39 -147.5t-124 -46.5v68q37 0 53.5 22.5
t16.5 72.5q-41 0 -60 19t-19 61q0 43 17 63.5t60 20.5z" />
    <glyph glyph-name="quotedblbase" unicode="&#x201e;" horiz-adv-x="463" 
d="M108 155q57 0 75.5 -35.5t18.5 -97.5q0 -102 -38.5 -148t-123.5 -46v67q37 0 53.5 22.5t15.5 72.5q-41 0 -59.5 19t-19.5 62q0 42 18 63t60 21zM338 155q30 0 50 -11t29 -31.5t12.5 -41.5t3.5 -49q0 -102 -38.5 -148t-124.5 -46v67q37 0 53.5 22.5t16.5 72.5
q-41 0 -60 19t-19 62q0 42 17 63t60 21z" />
    <glyph glyph-name="ellipsis" unicode="&#x2026;" horiz-adv-x="774" 
d="M116 156q45 0 65.5 -19.5t20.5 -62.5t-20.5 -62.5t-65.5 -19.5t-65.5 19.5t-20.5 62.5t20.5 62.5t65.5 19.5zM387 156q45 0 65.5 -19.5t20.5 -62.5t-20.5 -62.5t-65.5 -19.5q-46 0 -66 19t-20 63q0 43 20.5 62.5t65.5 19.5zM658 156q45 0 65.5 -19.5t20.5 -62.5
t-20.5 -62.5t-66.5 -19.5q-45 0 -65.5 19.5t-20.5 62.5t20.5 62.5t66.5 19.5z" />
    <glyph glyph-name="perthousand" unicode="&#x2030;" horiz-adv-x="1291" 
d="M684 390q92 0 133 -47t41 -151t-41 -151t-133 -47t-133 47t-41 151t41 151t133 47zM684 78q35 0 50.5 27t15.5 87t-15.5 87t-49.5 27q-35 0 -50.5 -27t-15.5 -87t15.5 -87t49.5 -27zM1086 390q92 0 133.5 -47t41.5 -151t-41.5 -151t-133.5 -47q-91 0 -132.5 47t-41.5 151
t41.5 151t132.5 47zM1086 78q35 0 50.5 27t15.5 87t-15.5 87t-49.5 27q-35 0 -50.5 -27t-15.5 -87t15.5 -87t49.5 -27zM204 710q92 0 133 -47t41 -151t-41 -151t-133 -47t-133 47t-41 151t41 151t133 47zM204 398q35 0 50.5 27t15.5 87t-15.5 87t-50.5 27t-50.5 -27
t-15.5 -87t15.5 -87t50.5 -27zM291 -30h-134l440 760h134z" />
    <glyph glyph-name="guilsinglleft" unicode="&#x2039;" horiz-adv-x="329" 
d="M157 450h142l-120 -190l120 -200h-142l-127 200z" />
    <glyph glyph-name="guilsinglright" unicode="&#x203a;" horiz-adv-x="329" 
d="M30 450h141l128 -190l-128 -200h-141l119 200z" />
    <glyph glyph-name="lira" unicode="&#x20a4;" horiz-adv-x="656" 
d="M174 116h452v-116h-586v134q67 24 86 102h-86v76h90v46h-90v76h90v66q-1 116 53.5 168t176.5 52q124 0 180 -52.5t56 -167.5h-141q1 63 -20 91.5t-67 28.5q-47 0 -68.5 -28.5t-21.5 -91.5v-66h238v-76h-238v-46h238v-76h-241q-7 -45 -31 -73.5t-70 -46.5z" />
    <glyph glyph-name="Euro" unicode="&#x20ac;" horiz-adv-x="857" 
d="M652 240v-1h165q-29 -137 -109 -198t-229 -61q-164 0 -250.5 64t-107.5 203h-91v76h84v27v28h-84v76h91q21 138 107.5 202t249.5 64q159 0 239 -61.5t99 -198.5h-165q-12 71 -53 103t-120 32q-78 0 -122 -34t-60 -107h244v-76h-253v-28v-26h214v-76h-205
q16 -74 60.5 -108.5t122.5 -34.5q77 0 118 32t55 103z" />
    <glyph glyph-name="trademark" unicode="&#x2122;" horiz-adv-x="1266" 
d="M478 700v-116h-154v-384h-140v384h-154v116h448zM550 200v500h190l132 -349l132 349h182v-500h-140v325l-128 -325h-100l-128 325v-325h-140z" />
    <glyph glyph-name="minus" unicode="&#x2212;" horiz-adv-x="390" 
d="M360 212h-330v108h330v-108z" />
    <glyph glyph-name="approxequal" unicode="&#x2248;" horiz-adv-x="660" 
d="M30 124v101q41 40 87 52.5t89 2t87.5 -30t88 -39.5t85 -31.5t84 -1t79.5 47.5v-101q-41 -40 -87 -52.5t-89 -2.5t-87.5 29.5t-88.5 39.5t-85 31.5t-83.5 1.5t-79.5 -47zM30 320v102q41 40 87 52t89 1.5t87.5 -30t88 -39.5t85 -31.5t84 -1t79.5 47.5v-101
q-41 -40 -87 -52.5t-89 -2.5t-87.5 29.5t-88.5 39.5t-85 31.5t-83.5 1.5t-79.5 -47z" />
    <glyph glyph-name="notequal" unicode="&#x2260;" horiz-adv-x="644" 
d="M188 0l41 114h-199v108h238l31 86h-269v108h308l30 84h84l-30 -84h192v-108h-231l-31 -86h262v-108h-301l-41 -114h-84z" />
    <glyph glyph-name="lessequal" unicode="&#x2264;" horiz-adv-x="460" 
d="M30 0v116h400v-116h-400zM30 525l400 175v-133l-267 -117l267 -117v-133l-400 175v150z" />
    <glyph glyph-name="greaterequal" unicode="&#x2265;" horiz-adv-x="460" 
d="M30 0v116h400v-116h-400zM30 700l400 -175v-150l-400 -175v133l267 117l-267 117v133z" />
    <glyph glyph-name="uniE132" unicode="&#xe132;" horiz-adv-x="533" 
d="M202 0h-148v500h148v-500zM269 -72q29 0 45 16.5t16 43.5v512h149v-528q0 -71 -40.5 -111.5t-113.5 -40.5h-135v108h79zM50 550l97 150h149l-128 -150h-118zM326 550l97 150h150l-129 -150h-118z" />
    <glyph glyph-name="uniE133" unicode="&#xe133;" horiz-adv-x="905" 
d="M80 700h164v-700h-164v700zM346 210v34h157v-34q0 -55 19 -80t62 -25q44 0 63 24.5t19 80.5v490h165v-490q0 -117 -59 -173.5t-188 -56.5q-123 0 -180.5 56.5t-57.5 173.5zM92 750l95 120h142l-119 -120h-118zM678 750l95 120h142l-119 -120h-118z" />
    <glyph glyph-name="a.alt1" horiz-adv-x="606" 
d="M248 -10q-115 0 -166.5 61.5t-51.5 198.5t51.5 198.5t166.5 61.5q109 0 161 -56l21 46h116v-500h-116l-21 46q-52 -56 -161 -56zM288 98q58 0 84 36t26 116t-26 116t-84 36t-84 -36t-26 -116t26 -116t84 -36z" />
    <glyph glyph-name="aacute.alt1" horiz-adv-x="606" 
d="M248 -10q-115 0 -166.5 61.5t-51.5 198.5t51.5 198.5t166.5 61.5q109 0 161 -56l21 46h116v-500h-116l-21 46q-52 -56 -161 -56zM288 98q58 0 84 36t26 116t-26 116t-84 36t-84 -36t-26 -116t26 -116t84 -36zM319 700h149l-128 -150h-118z" />
    <glyph glyph-name="aacutering.alt1" horiz-adv-x="606" 
d="M248 -10q-115 0 -166.5 61.5t-51.5 198.5t51.5 198.5t166.5 61.5q109 0 161 -56l21 46h116v-500h-116l-21 46q-52 -56 -161 -56zM288 98q58 0 84 36t26 116t-26 116t-84 36t-84 -36t-26 -116t26 -116t84 -36zM372 780h109l-88 -78q39 -27 39 -76q0 -45 -33 -71.5
t-91 -26.5t-91 26.5t-33 71.5q0 46 33 72t91 26h13zM308 588q26 0 37 9t11 29t-11 29t-37 9t-37 -9t-11 -29t11 -29t37 -9z" />
    <glyph glyph-name="abreve.alt1" horiz-adv-x="606" 
d="M248 -10q-115 0 -166.5 61.5t-51.5 198.5t51.5 198.5t166.5 61.5q109 0 161 -56l21 46h116v-500h-116l-21 46q-52 -56 -161 -56zM288 98q58 0 84 36t26 116t-26 116t-84 36t-84 -36t-26 -116t26 -116t84 -36zM374 700h100q0 -79 -39.5 -114.5t-126.5 -35.5t-126.5 35.5
t-39.5 114.5h100q0 -39 15.5 -56.5t50.5 -17.5t50.5 17.5t15.5 56.5z" />
    <glyph glyph-name="acircumflex.alt1" horiz-adv-x="606" 
d="M248 -10q-115 0 -166.5 61.5t-51.5 198.5t51.5 198.5t166.5 61.5q109 0 161 -56l21 46h116v-500h-116l-21 46q-52 -56 -161 -56zM288 98q58 0 84 36t26 116t-26 116t-84 36t-84 -36t-26 -116t26 -116t84 -36zM382 700l84 -150h-93l-65 82l-65 -82h-93l84 150h148z" />
    <glyph glyph-name="acute.case" horiz-adv-x="296" 
d="M30 550l94 120h142l-118 -120h-118z" />
    <glyph glyph-name="adieresis.alt1" horiz-adv-x="606" 
d="M248 -10q-115 0 -166.5 61.5t-51.5 198.5t51.5 198.5t166.5 61.5q109 0 161 -56l21 46h116v-500h-116l-21 46q-52 -56 -161 -56zM288 98q58 0 84 36t26 116t-26 116t-84 36t-84 -36t-26 -116t26 -116t84 -36zM198 728q45 0 65.5 -19.5t20.5 -62.5t-20.5 -62.5
t-65.5 -19.5q-46 0 -66 19t-20 63t20 63t66 19zM418 728q46 0 66.5 -19.5t20.5 -62.5t-21 -62.5t-66 -19.5t-65.5 19.5t-20.5 62.5t20.5 62.5t65.5 19.5z" />
    <glyph glyph-name="agrave.alt1" horiz-adv-x="606" 
d="M248 -10q-115 0 -166.5 61.5t-51.5 198.5t51.5 198.5t166.5 61.5q109 0 161 -56l21 46h116v-500h-116l-21 46q-52 -56 -161 -56zM288 98q58 0 84 36t26 116t-26 116t-84 36t-84 -36t-26 -116t26 -116t84 -36zM257 700l97 -150h-118l-128 150h149z" />
    <glyph glyph-name="amacron.alt1" horiz-adv-x="606" 
d="M248 -10q-115 0 -166.5 61.5t-51.5 198.5t51.5 198.5t166.5 61.5q109 0 161 -56l21 46h116v-500h-116l-21 46q-52 -56 -161 -56zM288 98q58 0 84 36t26 116t-26 116t-84 36t-84 -36t-26 -116t26 -116t84 -36zM138 588v84h340v-84h-340z" />
    <glyph glyph-name="aogonek.alt1" horiz-adv-x="606" 
d="M428 6h-1l-18 40q-52 -56 -161 -56q-115 0 -166.5 61.5t-51.5 198.5t51.5 198.5t166.5 61.5q109 0 161 -56l21 46h116v-500h-50q-47 -42 -51 -85q0 -39 40 -40q11 0 22.5 3t17.5 6l6 4v-118q-30 -20 -70 -20q-60 0 -89.5 45t-14.5 106.5t71 104.5zM289 98q58 0 84 36
t26 116t-26 116t-84 36t-84 -36t-26 -116t26 -116t84 -36z" />
    <glyph glyph-name="aring.alt1" horiz-adv-x="606" 
d="M248 -10q-115 0 -166.5 61.5t-51.5 198.5t51.5 198.5t166.5 61.5q109 0 161 -56l21 46h116v-500h-116l-21 46q-52 -56 -161 -56zM288 98q58 0 84 36t26 116t-26 116t-84 36t-84 -36t-26 -116t26 -116t84 -36zM308 746q65 0 94.5 -25t29.5 -81t-29.5 -81t-94.5 -25
t-94.5 25t-29.5 81t29.5 81t94.5 25zM308 594q26 0 37 10.5t11 35.5t-11 35.5t-37 10.5t-37 -10.5t-11 -35.5t11 -35.5t37 -10.5z" />
    <glyph glyph-name="atilde.alt1" horiz-adv-x="606" 
d="M248 -10q-115 0 -166.5 61.5t-51.5 198.5t51.5 198.5t166.5 61.5q109 0 161 -56l21 46h116v-500h-116l-21 46q-52 -56 -161 -56zM288 98q58 0 84 36t26 116t-26 116t-84 36t-84 -36t-26 -116t26 -116t84 -36zM142 578q0 52 30 89t72 37q29 0 52.5 -12t35 -27t24.5 -27
t24 -12t18.5 11t7.5 31h68q0 -52 -30 -89t-72 -37q-29 0 -52 12t-34.5 27t-25 27t-24.5 12t-18.5 -11t-7.5 -31h-68z" />
    <glyph glyph-name="breve.case" horiz-adv-x="392" 
d="M254 670h108q0 -63 -39.5 -91.5t-126.5 -28.5t-126.5 28.5t-39.5 91.5h108q0 -27 13.5 -39.5t44.5 -12.5t44.5 12.5t13.5 39.5z" />
    <glyph glyph-name="caron.case" horiz-adv-x="380" 
d="M350 670l-86 -120h-148l-86 120h101l59 -60l59 60h101z" />
    <glyph glyph-name="circumflex.case" horiz-adv-x="380" 
d="M264 670l86 -120h-101l-59 60l-59 -60h-101l86 120h148z" />
    <glyph glyph-name="commaaccent" horiz-adv-x="184" 
d="M92 -42q37 0 49.5 -22.5t12.5 -61.5q0 -59 -27 -85.5t-87 -26.5v52q46 0 46 44q-56 0 -56 45q0 30 15.5 42.5t46.5 12.5z" />
    <glyph glyph-name="dieresis.case" horiz-adv-x="469" 
d="M116 716q45 0 65.5 -16.5t20.5 -53.5t-20.5 -53.5t-65.5 -16.5t-65.5 16.5t-20.5 53.5t20.5 53.5t65.5 16.5zM353 716q45 0 65.5 -16.5t20.5 -53.5t-20.5 -53.5t-66.5 -16.5q-45 0 -65.5 16.5t-20.5 53.5t20.5 53.5t66.5 16.5z" />
    <glyph glyph-name="dotaccent.case" horiz-adv-x="232" 
d="M116 692q45 0 65.5 -16.5t20.5 -53.5t-20.5 -53.5t-65.5 -16.5t-65.5 16.5t-20.5 53.5t20.5 53.5t65.5 16.5z" />
    <glyph glyph-name="grave.case" horiz-adv-x="296" 
d="M164 670l102 -120h-109l-127 120h134z" />
    <glyph glyph-name="hungarumlaut.case" horiz-adv-x="481" 
d="M30 550l86 120h134l-110 -120h-110zM230 550l87 120h134l-111 -120h-110z" />
    <glyph glyph-name="tilde.case" horiz-adv-x="392" 
d="M30 580q0 51 29 79.5t73 28.5q48 0 87.5 -25t56.5 -25q11 0 18.5 9t7.5 23h60q0 -51 -29 -79.5t-73 -28.5q-48 0 -87.5 25t-56.5 25q-11 0 -18.5 -9t-7.5 -23h-60z" />
    </font>
</defs>
</svg>
